STARTFONT 2.1
COMMENT
COMMENT Converted from OpenType font "Q:\font stuff\winfont\neuropolitical.ttf" by "otf2bdf 3.0".
COMMENT
FONT -FreeType-Neuropolitical Rg-Medium-R-Normal--20-200-72-72-P-133-ISO10646-1
SIZE 20 72 72
FONTBOUNDINGBOX 31 25 -3 -5
STARTPROPERTIES 19
FOUNDRY "FreeType"
FAMILY_NAME "Neuropolitical Rg"
WEIGHT_NAME "Medium"
SLANT "R"
SETWIDTH_NAME "Normal"
ADD_STYLE_NAME ""
PIXEL_SIZE 15
POINT_SIZE 200
RESOLUTION_X 72
RESOLUTION_Y 72
SPACING "P"
AVERAGE_WIDTH 133
CHARSET_REGISTRY "ISO10646"
CHARSET_ENCODING "1"
FONT_ASCENT 19
FONT_DESCENT 4
COPYRIGHT "(c) 1999-2011 Typodermic Fonts. www.typodermic.com/license.html - Design: Ray Larabie Languages & kerning: Chikako Larabie"
_OTF_FONTFILE "Q:\font stuff\winfont\neuropolitical.ttf"
_OTF_PSNAME "NeuropoliticalRg-Regular"
ENDPROPERTIES
CHARS 385
STARTCHAR 0017
ENCODING 23
SWIDTH 400 0
DWIDTH 8 0
BBX 0 0 0 0
BITMAP
ENDCHAR
STARTCHAR 0020
ENCODING 32
SWIDTH 400 0
DWIDTH 8 0
BBX 0 0 0 0
BITMAP
ENDCHAR
STARTCHAR 0021
ENCODING 33
SWIDTH 250 0
DWIDTH 5 0
BBX 3 14 1 0
BITMAP
E0
E0
E0
E0
E0
E0
E0
E0
E0
E0
00
E0
E0
E0
ENDCHAR
STARTCHAR 0022
ENCODING 34
SWIDTH 400 0
DWIDTH 8 0
BBX 7 5 1 9
BITMAP
EE
CC
CC
CC
CC
ENDCHAR
STARTCHAR 0023
ENCODING 35
SWIDTH 650 0
DWIDTH 13 0
BBX 12 14 1 0
BITMAP
18C0
18C0
18C0
18C0
FFF0
FFF0
FFE0
3180
3180
FFE0
FFE0
FFE0
6300
6300
ENDCHAR
STARTCHAR 0024
ENCODING 36
SWIDTH 850 0
DWIDTH 17 0
BBX 15 16 1 -1
BITMAP
0300
7F00
7F00
FF00
E300
E300
E300
FFF8
FFFE
7FFE
030E
030E
FFFE
FFFE
FFF8
0300
ENDCHAR
STARTCHAR 0025
ENCODING 37
SWIDTH 1050 0
DWIDTH 21 0
BBX 19 14 1 0
BITMAP
7E0E00
FF0C00
C31800
C33800
C33000
FF6000
7EE000
00CFC0
019FE0
039860
031860
061860
0E1FE0
0C0FC0
ENDCHAR
STARTCHAR 0026
ENCODING 38
SWIDTH 950 0
DWIDTH 19 0
BBX 17 14 1 0
BITMAP
3FF000
7FF800
7FF800
703800
703800
307000
3FE000
7F0700
E1C700
E0E700
E03F00
FFFE00
FFFF00
3FFB80
ENDCHAR
STARTCHAR 0027
ENCODING 39
SWIDTH 200 0
DWIDTH 4 0
BBX 3 5 1 9
BITMAP
E0
C0
C0
C0
C0
ENDCHAR
STARTCHAR 0028
ENCODING 40
SWIDTH 350 0
DWIDTH 7 0
BBX 5 22 2 -5
BITMAP
38
78
E0
C0
C0
C0
C0
C0
C0
C0
C0
C0
C0
C0
C0
C0
C0
C0
C0
E0
78
38
ENDCHAR
STARTCHAR 0029
ENCODING 41
SWIDTH 350 0
DWIDTH 7 0
BBX 5 22 0 -5
BITMAP
E0
F0
38
18
18
18
18
18
18
18
18
18
18
18
18
18
18
18
18
38
F0
E0
ENDCHAR
STARTCHAR 002A
ENCODING 42
SWIDTH 550 0
DWIDTH 11 0
BBX 9 9 1 6
BITMAP
0C00
0800
8800
EB80
7F00
1C00
3600
7300
2300
ENDCHAR
STARTCHAR 002B
ENCODING 43
SWIDTH 600 0
DWIDTH 12 0
BBX 10 10 1 2
BITMAP
0C00
0C00
0C00
0C00
FFC0
FFC0
FFC0
0C00
0C00
0C00
ENDCHAR
STARTCHAR 002C
ENCODING 44
SWIDTH 250 0
DWIDTH 5 0
BBX 3 4 1 -1
BITMAP
E0
E0
C0
C0
ENDCHAR
STARTCHAR 002D
ENCODING 45
SWIDTH 400 0
DWIDTH 8 0
BBX 6 3 1 5
BITMAP
FC
FC
FC
ENDCHAR
STARTCHAR 002E
ENCODING 46
SWIDTH 250 0
DWIDTH 5 0
BBX 3 3 1 0
BITMAP
E0
E0
E0
ENDCHAR
STARTCHAR 002F
ENCODING 47
SWIDTH 500 0
DWIDTH 10 0
BBX 10 16 0 -2
BITMAP
01C0
0180
0180
0300
0300
0600
0600
0E00
0C00
1C00
1800
3800
3000
7000
6000
E000
ENDCHAR
STARTCHAR 0030
ENCODING 48
SWIDTH 900 0
DWIDTH 18 0
BBX 16 14 1 0
BITMAP
3FFC
7FFE
FFFF
E007
E007
E007
E007
E007
E007
E007
E007
FFFF
7FFE
3FFC
ENDCHAR
STARTCHAR 0031
ENCODING 49
SWIDTH 250 0
DWIDTH 5 0
BBX 3 14 1 0
BITMAP
E0
E0
E0
E0
E0
E0
E0
E0
E0
E0
E0
E0
E0
E0
ENDCHAR
STARTCHAR 0032
ENCODING 50
SWIDTH 900 0
DWIDTH 18 0
BBX 16 14 1 0
BITMAP
01FC
01FE
01FF
0007
0007
0007
7FFF
FFFF
FFFE
E000
E000
FFFF
FFFF
FFFF
ENDCHAR
STARTCHAR 0033
ENCODING 51
SWIDTH 900 0
DWIDTH 18 0
BBX 16 14 1 0
BITMAP
01FC
01FE
01FF
0007
0007
0007
FFFE
FFFE
FFFF
0007
0007
FFFF
FFFF
FFFE
ENDCHAR
STARTCHAR 0034
ENCODING 52
SWIDTH 1000 0
DWIDTH 20 0
BBX 17 14 1 0
BITMAP
E00380
E00380
E00380
E00380
E00380
E00380
E00380
FFFF80
FFFF80
FFFF80
000380
000380
000380
000380
ENDCHAR
STARTCHAR 0035
ENCODING 53
SWIDTH 950 0
DWIDTH 19 0
BBX 17 14 1 0
BITMAP
FFC000
FFC000
FFC000
E00000
E00000
FFFE00
FFFF80
FFFF80
000380
000380
000380
FFFF80
FFFF00
FFFE00
ENDCHAR
STARTCHAR 0036
ENCODING 54
SWIDTH 950 0
DWIDTH 19 0
BBX 17 14 1 0
BITMAP
3FC000
7FC000
FFC000
E00000
E00000
FFFE00
FFFF00
FFFF80
E00380
E00380
E00380
FFFF80
7FFF00
3FFF00
ENDCHAR
STARTCHAR 0037
ENCODING 55
SWIDTH 900 0
DWIDTH 18 0
BBX 16 14 1 0
BITMAP
FFFF
FFFF
FFFF
000E
001C
003C
0078
00F0
00E0
01C0
03C0
0780
0F00
1E00
ENDCHAR
STARTCHAR 0038
ENCODING 56
SWIDTH 900 0
DWIDTH 18 0
BBX 16 14 1 0
BITMAP
3FFC
FFFE
FFFF
E007
E007
E007
FFFE
7FFE
FFFF
E007
E007
FFFF
FFFF
7FFE
ENDCHAR
STARTCHAR 0039
ENCODING 57
SWIDTH 950 0
DWIDTH 19 0
BBX 17 14 1 0
BITMAP
7FFE00
7FFF00
FFFF80
E00380
E00380
E00380
FFFF80
7FFF80
3FFF80
000380
000380
00FF80
00FF00
00FE00
ENDCHAR
STARTCHAR 003A
ENCODING 58
SWIDTH 250 0
DWIDTH 5 0
BBX 3 10 1 0
BITMAP
E0
E0
E0
00
00
00
00
E0
E0
E0
ENDCHAR
STARTCHAR 003B
ENCODING 59
SWIDTH 250 0
DWIDTH 5 0
BBX 3 11 1 -1
BITMAP
E0
E0
E0
00
00
00
E0
E0
C0
C0
C0
ENDCHAR
STARTCHAR 003C
ENCODING 60
SWIDTH 600 0
DWIDTH 12 0
BBX 10 12 1 1
BITMAP
0040
01C0
0780
1E00
7800
F000
F000
7800
1E00
0780
01C0
0040
ENDCHAR
STARTCHAR 003D
ENCODING 61
SWIDTH 600 0
DWIDTH 12 0
BBX 10 8 1 4
BITMAP
FFC0
FFC0
FFC0
0000
0000
0000
FFC0
FFC0
ENDCHAR
STARTCHAR 003E
ENCODING 62
SWIDTH 600 0
DWIDTH 12 0
BBX 10 12 1 1
BITMAP
8000
E000
7800
3E00
0F00
03C0
03C0
0F00
3E00
7800
E000
8000
ENDCHAR
STARTCHAR 003F
ENCODING 63
SWIDTH 650 0
DWIDTH 13 0
BBX 11 14 1 0
BITMAP
0F80
0FC0
0FE0
00E0
00E0
00E0
00E0
7FE0
FFE0
FFC0
0000
E000
E000
E000
ENDCHAR
STARTCHAR 0040
ENCODING 64
SWIDTH 750 0
DWIDTH 15 0
BBX 13 17 1 -3
BITMAP
7FF0
FFF8
FFF8
C018
C018
C7F8
CFF8
CE18
CE18
CE18
CE18
CFF8
C7F0
C000
FE00
FE00
7E00
ENDCHAR
STARTCHAR 0041
ENCODING 65
SWIDTH 1050 0
DWIDTH 21 0
BBX 20 14 0 0
BITMAP
007000
00F800
01F800
01DC00
039E00
078E00
070700
0E0700
0FFF80
1FFFC0
3FFFC0
3801E0
7800F0
F00070
ENDCHAR
STARTCHAR 0042
ENCODING 66
SWIDTH 900 0
DWIDTH 18 0
BBX 16 14 1 0
BITMAP
FFFC
FFFE
FFFF
E007
E007
E007
FFFE
FFFE
FFFF
E007
E007
FFFF
FFFF
FFFE
ENDCHAR
STARTCHAR 0043
ENCODING 67
SWIDTH 850 0
DWIDTH 17 0
BBX 15 14 1 0
BITMAP
3FFE
7FFE
FFFE
E000
E000
E000
E000
E000
E000
E000
E000
FFFE
7FFE
3FFE
ENDCHAR
STARTCHAR 0044
ENCODING 68
SWIDTH 900 0
DWIDTH 18 0
BBX 16 14 1 0
BITMAP
FFFC
FFFE
FFFF
E007
E007
E007
E007
E007
E007
E007
E007
FFFF
FFFE
FFFC
ENDCHAR
STARTCHAR 0045
ENCODING 69
SWIDTH 850 0
DWIDTH 17 0
BBX 15 14 1 0
BITMAP
3F80
7F80
FF80
E000
E000
E000
FFFE
FFFE
FFFE
E000
E000
FFFE
7FFE
3FFE
ENDCHAR
STARTCHAR 0046
ENCODING 70
SWIDTH 800 0
DWIDTH 16 0
BBX 15 14 1 0
BITMAP
3F00
7F00
FF00
E000
E000
E000
FFFE
FFFE
FFFE
E000
E000
E000
E000
E000
ENDCHAR
STARTCHAR 0047
ENCODING 71
SWIDTH 900 0
DWIDTH 18 0
BBX 16 14 1 0
BITMAP
3F80
7F80
FF80
E000
E000
E000
E007
E007
E007
E007
E007
FFFF
7FFE
3FFC
ENDCHAR
STARTCHAR 0048
ENCODING 72
SWIDTH 900 0
DWIDTH 18 0
BBX 16 14 1 0
BITMAP
E007
E007
E007
E007
E007
E007
FFFF
FFFF
FFFF
E007
E007
E007
E007
E007
ENDCHAR
STARTCHAR 0049
ENCODING 73
SWIDTH 250 0
DWIDTH 5 0
BBX 3 14 1 0
BITMAP
E0
E0
E0
E0
E0
E0
E0
E0
E0
E0
E0
E0
E0
E0
ENDCHAR
STARTCHAR 004A
ENCODING 74
SWIDTH 500 0
DWIDTH 10 0
BBX 9 14 0 0
BITMAP
0380
0380
0380
0380
0380
0380
0380
0380
0380
0380
0780
FF80
FF00
FE00
ENDCHAR
STARTCHAR 004B
ENCODING 75
SWIDTH 800 0
DWIDTH 16 0
BBX 14 14 1 0
BITMAP
E03C
E078
E0F0
E1E0
E780
EF00
FE00
FF00
EF80
E3C0
E1E0
E0F0
E078
E03C
ENDCHAR
STARTCHAR 004C
ENCODING 76
SWIDTH 750 0
DWIDTH 15 0
BBX 14 14 1 0
BITMAP
E000
E000
E000
E000
E000
E000
E000
E000
E000
E000
F000
FFFC
7FFC
3FFC
ENDCHAR
STARTCHAR 004D
ENCODING 77
SWIDTH 1200 0
DWIDTH 24 0
BBX 22 14 1 0
BITMAP
E0001C
F0003C
F8007C
F8007C
FC00FC
FE01FC
EF03DC
E7839C
E3871C
E1CE1C
E1FE1C
E0FC1C
E0781C
E0301C
ENDCHAR
STARTCHAR 004E
ENCODING 78
SWIDTH 900 0
DWIDTH 18 0
BBX 16 14 1 0
BITMAP
E007
F007
F807
FC07
FE07
EF07
E787
E1C7
E0E7
E077
E03F
E01F
E00F
E007
ENDCHAR
STARTCHAR 004F
ENCODING 79
SWIDTH 900 0
DWIDTH 18 0
BBX 16 14 1 0
BITMAP
3FFC
7FFE
FFFF
E007
E007
E007
E007
E007
E007
E007
E007
FFFF
7FFE
3FFC
ENDCHAR
STARTCHAR 0050
ENCODING 80
SWIDTH 900 0
DWIDTH 18 0
BBX 16 14 1 0
BITMAP
FFFC
FFFE
FFFF
E007
E007
E007
E007
FFFF
FFFE
FFFC
E000
E000
E000
E000
ENDCHAR
STARTCHAR 0051
ENCODING 81
SWIDTH 900 0
DWIDTH 18 0
BBX 17 16 1 -2
BITMAP
3FFC00
7FFE00
FFFF00
E00700
E00700
E00700
E00700
E00700
E00700
E00700
E00700
FFFF00
7FFE00
3FFE00
000F00
000780
ENDCHAR
STARTCHAR 0052
ENCODING 82
SWIDTH 900 0
DWIDTH 18 0
BBX 16 14 1 0
BITMAP
FFFC
FFFE
FFFF
E007
E007
E007
E007
FFFF
FFFE
FFFC
E780
E3E0
E0F8
E03E
ENDCHAR
STARTCHAR 0053
ENCODING 83
SWIDTH 850 0
DWIDTH 17 0
BBX 15 14 1 0
BITMAP
3F00
7F00
FF00
E000
E000
E000
FFFC
FFFE
7FFE
000E
000E
FFFE
FFFE
FFFC
ENDCHAR
STARTCHAR 0054
ENCODING 84
SWIDTH 750 0
DWIDTH 15 0
BBX 15 14 0 0
BITMAP
FFFE
FFFE
FFFE
0380
0380
0380
0380
0380
0380
0380
0380
0380
0380
0380
ENDCHAR
STARTCHAR 0055
ENCODING 85
SWIDTH 900 0
DWIDTH 18 0
BBX 16 14 1 0
BITMAP
E007
E007
E007
E007
E007
E007
E007
E007
E007
E007
F00F
FFFF
7FFE
3FFC
ENDCHAR
STARTCHAR 0056
ENCODING 86
SWIDTH 1050 0
DWIDTH 21 0
BBX 20 14 0 0
BITMAP
F000F0
7800E0
3801E0
3C01C0
1E03C0
0E0780
0F0700
070F00
078E00
03DC00
01FC00
01F800
00F800
007000
ENDCHAR
STARTCHAR 0057
ENCODING 87
SWIDTH 1350 0
DWIDTH 27 0
BBX 27 14 0 0
BITMAP
F00E01E0
701E01C0
781F03C0
381F0380
383B8780
3C3B8700
1C71C700
1E71CE00
0EE1EE00
0EE0FE00
07C0FC00
07C07C00
07807800
03803800
ENDCHAR
STARTCHAR 0058
ENCODING 88
SWIDTH 1000 0
DWIDTH 20 0
BBX 19 14 1 0
BITMAP
F803C0
7C0780
3E0F00
1F1E00
07BC00
03F800
01F000
03F000
07F800
0F3C00
1E1E00
3C0F00
780780
F003E0
ENDCHAR
STARTCHAR 0059
ENCODING 89
SWIDTH 950 0
DWIDTH 19 0
BBX 17 14 1 0
BITMAP
F00380
780F00
3C1E00
1E3C00
0F7800
07F000
03E000
01C000
01C000
01C000
01C000
01C000
01C000
01C000
ENDCHAR
STARTCHAR 005A
ENCODING 90
SWIDTH 850 0
DWIDTH 17 0
BBX 15 14 1 0
BITMAP
FFFC
FFFE
FFFC
0038
00F0
01E0
03C0
0780
0E00
1C00
7800
FFFE
FFFE
FFFE
ENDCHAR
STARTCHAR 005B
ENCODING 91
SWIDTH 350 0
DWIDTH 7 0
BBX 5 22 2 -5
BITMAP
F8
F8
C0
C0
C0
C0
C0
C0
C0
C0
C0
C0
C0
C0
C0
C0
C0
C0
C0
C0
F8
F8
ENDCHAR
STARTCHAR 005C
ENCODING 92
SWIDTH 500 0
DWIDTH 10 0
BBX 10 16 0 -2
BITMAP
E000
6000
7000
3000
3800
1800
1C00
0C00
0E00
0600
0600
0300
0300
0180
0180
01C0
ENDCHAR
STARTCHAR 005D
ENCODING 93
SWIDTH 350 0
DWIDTH 7 0
BBX 5 22 0 -5
BITMAP
F8
F8
18
18
18
18
18
18
18
18
18
18
18
18
18
18
18
18
18
18
F8
F8
ENDCHAR
STARTCHAR 005E
ENCODING 94
SWIDTH 600 0
DWIDTH 12 0
BBX 11 10 1 4
BITMAP
0C00
0E00
1E00
1F00
3B00
3380
7180
61C0
E0C0
C0E0
ENDCHAR
STARTCHAR 005F
ENCODING 95
SWIDTH 650 0
DWIDTH 13 0
BBX 13 3 0 -4
BITMAP
FFF8
FFF8
FFF8
ENDCHAR
STARTCHAR 0060
ENCODING 96
SWIDTH 400 0
DWIDTH 8 0
BBX 5 5 2 12
BITMAP
E0
E0
70
70
38
ENDCHAR
STARTCHAR 0061
ENCODING 97
SWIDTH 850 0
DWIDTH 17 0
BBX 15 11 1 0
BITMAP
01F8
01FC
01FE
000E
7FFE
FFFE
E00E
E00E
FFFE
FFFC
7FF8
ENDCHAR
STARTCHAR 0062
ENCODING 98
SWIDTH 800 0
DWIDTH 16 0
BBX 14 14 1 0
BITMAP
E000
E000
E000
FFF0
FFF8
FFFC
E01C
E01C
E01C
E01C
E01C
FFFC
7FF8
3FF0
ENDCHAR
STARTCHAR 0063
ENCODING 99
SWIDTH 750 0
DWIDTH 15 0
BBX 13 11 1 0
BITMAP
3FF8
7FF8
FFF8
E000
E000
E000
E000
E000
FFF8
7FF8
3FF8
ENDCHAR
STARTCHAR 0064
ENCODING 100
SWIDTH 800 0
DWIDTH 16 0
BBX 14 14 1 0
BITMAP
001C
001C
001C
3FFC
7FFC
FFFC
E01C
E01C
E01C
E01C
E01C
FFFC
7FF8
3FF0
ENDCHAR
STARTCHAR 0065
ENCODING 101
SWIDTH 800 0
DWIDTH 16 0
BBX 14 11 1 0
BITMAP
3FF8
7FFC
FFFC
E01C
E01C
FFFC
FFFC
E000
FF00
7F00
3F00
ENDCHAR
STARTCHAR 0066
ENCODING 102
SWIDTH 450 0
DWIDTH 9 0
BBX 7 15 1 0
BITMAP
7E
FE
FE
E0
FE
FE
FE
E0
E0
E0
E0
E0
E0
E0
E0
ENDCHAR
STARTCHAR 0067
ENCODING 103
SWIDTH 800 0
DWIDTH 16 0
BBX 14 15 1 -4
BITMAP
3FF0
7FF8
FFFC
E01C
E01C
E01C
E01C
FFFC
FFFC
3FFC
001C
001C
03FC
03FC
03F8
ENDCHAR
STARTCHAR 0068
ENCODING 104
SWIDTH 800 0
DWIDTH 16 0
BBX 14 14 1 0
BITMAP
E000
E000
E000
FFF0
FFF8
FFFC
E01C
E01C
E01C
E01C
E01C
E01C
E01C
E01C
ENDCHAR
STARTCHAR 0069
ENCODING 105
SWIDTH 250 0
DWIDTH 5 0
BBX 3 14 1 0
BITMAP
E0
E0
E0
E0
E0
E0
E0
E0
E0
E0
E0
E0
E0
E0
ENDCHAR
STARTCHAR 006A
ENCODING 106
SWIDTH 300 0
DWIDTH 6 0
BBX 6 17 -1 -3
BITMAP
1C
1C
1C
1C
1C
1C
1C
1C
1C
1C
1C
1C
1C
1C
FC
F8
F0
ENDCHAR
STARTCHAR 006B
ENCODING 107
SWIDTH 750 0
DWIDTH 15 0
BBX 13 14 1 0
BITMAP
E000
E000
E000
E078
E0F0
E1C0
E780
EF00
FC00
EF00
E780
E3C0
E1E0
E078
ENDCHAR
STARTCHAR 006C
ENCODING 108
SWIDTH 250 0
DWIDTH 5 0
BBX 3 14 1 0
BITMAP
E0
E0
E0
E0
E0
E0
E0
E0
E0
E0
E0
E0
E0
E0
ENDCHAR
STARTCHAR 006D
ENCODING 109
SWIDTH 1100 0
DWIDTH 22 0
BBX 20 11 1 0
BITMAP
3F8FE0
FFDFF0
FFFFF0
E07070
E07070
E07070
E07070
E07070
E07070
E07070
E07070
ENDCHAR
STARTCHAR 006E
ENCODING 110
SWIDTH 800 0
DWIDTH 16 0
BBX 14 11 1 0
BITMAP
3FF0
7FF8
FFFC
E01C
E01C
E01C
E01C
E01C
E01C
E01C
E01C
ENDCHAR
STARTCHAR 006F
ENCODING 111
SWIDTH 800 0
DWIDTH 16 0
BBX 14 11 1 0
BITMAP
3FF0
7FF8
FFFC
E01C
E01C
E01C
E01C
E01C
FFFC
7FF8
3FF0
ENDCHAR
STARTCHAR 0070
ENCODING 112
SWIDTH 800 0
DWIDTH 16 0
BBX 14 14 1 -3
BITMAP
3FF0
7FF8
FFFC
E01C
E01C
E01C
E01C
E01C
FFFC
FFF8
FFF0
E000
E000
E000
ENDCHAR
STARTCHAR 0071
ENCODING 113
SWIDTH 800 0
DWIDTH 16 0
BBX 14 14 1 -3
BITMAP
3FF0
7FF8
FFFC
E01C
E01C
E01C
E01C
E01C
FFFC
7FFC
3FFC
001C
001C
001C
ENDCHAR
STARTCHAR 0072
ENCODING 114
SWIDTH 450 0
DWIDTH 9 0
BBX 7 11 1 0
BITMAP
3E
7E
FE
E0
E0
E0
E0
E0
E0
E0
E0
ENDCHAR
STARTCHAR 0073
ENCODING 115
SWIDTH 750 0
DWIDTH 15 0
BBX 13 11 1 0
BITMAP
7E00
FE00
FE00
FFF0
FFF8
7FF8
0038
0038
FFF8
FFF8
FFF0
ENDCHAR
STARTCHAR 0074
ENCODING 116
SWIDTH 450 0
DWIDTH 9 0
BBX 8 14 0 0
BITMAP
38
38
38
FF
FF
FF
38
38
38
38
38
38
38
38
ENDCHAR
STARTCHAR 0075
ENCODING 117
SWIDTH 800 0
DWIDTH 16 0
BBX 14 11 1 0
BITMAP
E01C
E01C
E01C
E01C
E01C
E01C
E01C
E01C
FFFC
7FF8
3FF0
ENDCHAR
STARTCHAR 0076
ENCODING 118
SWIDTH 950 0
DWIDTH 19 0
BBX 17 11 1 0
BITMAP
E00380
F00700
700F00
380E00
3C1C00
1E3C00
0E3800
077000
07E000
03E000
01C000
ENDCHAR
STARTCHAR 0077
ENCODING 119
SWIDTH 1100 0
DWIDTH 22 0
BBX 22 11 0 0
BITMAP
E0301C
707838
707838
38FC70
38FC70
1DCEE0
1DCEE0
1F87C0
0F87C0
0F03C0
060380
ENDCHAR
STARTCHAR 0078
ENCODING 120
SWIDTH 750 0
DWIDTH 15 0
BBX 13 11 1 0
BITMAP
F038
7870
3CE0
1DC0
0F80
0780
0F80
1DC0
38E0
7070
E038
ENDCHAR
STARTCHAR 0079
ENCODING 121
SWIDTH 800 0
DWIDTH 16 0
BBX 14 15 1 -4
BITMAP
E01C
E01C
E01C
E01C
E01C
E01C
E01C
FFFC
7FFC
3FFC
001C
001C
03FC
03FC
03F8
ENDCHAR
STARTCHAR 007A
ENCODING 122
SWIDTH 700 0
DWIDTH 14 0
BBX 12 11 1 0
BITMAP
FFF0
FFF0
FFE0
01C0
0300
0600
1C00
3800
7FF0
FFF0
FFF0
ENDCHAR
STARTCHAR 007B
ENCODING 123
SWIDTH 350 0
DWIDTH 7 0
BBX 6 22 0 -5
BITMAP
3C
3C
30
30
30
30
30
30
30
30
F0
F0
30
30
30
30
30
30
30
30
3C
3C
ENDCHAR
STARTCHAR 007C
ENCODING 124
SWIDTH 250 0
DWIDTH 5 0
BBX 2 21 2 -4
BITMAP
C0
C0
C0
C0
C0
C0
C0
C0
C0
C0
C0
C0
C0
C0
C0
C0
C0
C0
C0
C0
C0
ENDCHAR
STARTCHAR 007D
ENCODING 125
SWIDTH 350 0
DWIDTH 7 0
BBX 6 22 0 -5
BITMAP
F0
F0
30
30
30
30
30
30
30
30
3C
3C
30
30
30
30
30
30
30
30
F0
E0
ENDCHAR
STARTCHAR 007E
ENCODING 126
SWIDTH 600 0
DWIDTH 12 0
BBX 10 4 1 5
BITMAP
7040
FFC0
FF80
0600
ENDCHAR
STARTCHAR 00A0
ENCODING 160
SWIDTH 400 0
DWIDTH 8 0
BBX 0 0 0 0
BITMAP
ENDCHAR
STARTCHAR 00A1
ENCODING 161
SWIDTH 300 0
DWIDTH 6 0
BBX 3 14 2 0
BITMAP
E0
E0
E0
00
E0
E0
E0
E0
E0
E0
E0
E0
E0
E0
ENDCHAR
STARTCHAR 00A2
ENCODING 162
SWIDTH 750 0
DWIDTH 15 0
BBX 13 14 1 0
BITMAP
0180
0180
3FF8
7FF8
FFF8
E180
E180
E180
E180
E180
FFF8
7FF8
3FF8
0180
ENDCHAR
STARTCHAR 00A3
ENCODING 163
SWIDTH 850 0
DWIDTH 17 0
BBX 16 14 0 0
BITMAP
0FC0
1FC0
3FC0
3800
3800
3800
3FFF
3FFF
3FFF
3800
3800
FFFF
FFFF
FFFF
ENDCHAR
STARTCHAR 00A4
ENCODING 164
SWIDTH 700 0
DWIDTH 14 0
BBX 13 13 1 0
BITMAP
4010
E038
7FF0
3FE0
18C0
18C0
18C0
18C0
1FC0
3FE0
7070
E038
4010
ENDCHAR
STARTCHAR 00A5
ENCODING 165
SWIDTH 850 0
DWIDTH 17 0
BBX 17 14 0 0
BITMAP
F00780
780F00
3C1E00
1E3C00
0F7800
07F000
03E000
3FFE00
3FFE00
3FFE00
3FFE00
3FFE00
01C000
01C000
ENDCHAR
STARTCHAR 00A6
ENCODING 166
SWIDTH 250 0
DWIDTH 5 0
BBX 2 21 2 -4
BITMAP
C0
C0
C0
C0
C0
C0
C0
C0
C0
00
00
00
C0
C0
C0
C0
C0
C0
C0
C0
C0
ENDCHAR
STARTCHAR 00A7
ENCODING 167
SWIDTH 750 0
DWIDTH 15 0
BBX 13 19 1 -5
BITMAP
3F80
7F80
FF80
E000
E000
FFE0
FFF0
FFF8
E038
E038
FFF8
FFF8
3FF8
0038
0038
0038
FFF8
FFF0
FFE0
ENDCHAR
STARTCHAR 00A8
ENCODING 168
SWIDTH 500 0
DWIDTH 10 0
BBX 8 3 1 11
BITMAP
E7
E7
E7
ENDCHAR
STARTCHAR 00A9
ENCODING 169
SWIDTH 900 0
DWIDTH 18 0
BBX 16 13 1 0
BITMAP
3FFC
6006
C003
C7F3
CC03
CC03
CC03
CC03
C7F3
C003
C003
6006
3FFC
ENDCHAR
STARTCHAR 00AA
ENCODING 170
SWIDTH 500 0
DWIDTH 10 0
BBX 8 6 1 6
BITMAP
0E
03
FF
C3
C3
FE
ENDCHAR
STARTCHAR 00AB
ENCODING 171
SWIDTH 600 0
DWIDTH 12 0
BBX 11 9 0 2
BITMAP
0820
1860
38E0
71C0
E380
71C0
38E0
1860
0820
ENDCHAR
STARTCHAR 00AC
ENCODING 172
SWIDTH 550 0
DWIDTH 11 0
BBX 10 9 0 0
BITMAP
FFC0
FFC0
FFC0
00C0
00C0
00C0
00C0
00C0
00C0
ENDCHAR
STARTCHAR 00AE
ENCODING 174
SWIDTH 900 0
DWIDTH 18 0
BBX 16 13 1 0
BITMAP
3FFC
6006
C003
CFF3
CC33
CC33
CFF3
CD83
CC63
C003
C003
6006
3FFC
ENDCHAR
STARTCHAR 00AF
ENCODING 175
SWIDTH 650 0
DWIDTH 13 0
BBX 11 3 1 13
BITMAP
FFE0
FFE0
FFE0
ENDCHAR
STARTCHAR 00B0
ENCODING 176
SWIDTH 450 0
DWIDTH 9 0
BBX 7 8 1 6
BITMAP
7C
FE
C6
C6
C6
C6
FE
7C
ENDCHAR
STARTCHAR 00B1
ENCODING 177
SWIDTH 600 0
DWIDTH 12 0
BBX 10 13 1 -1
BITMAP
0C00
0C00
0C00
0C00
FFC0
FFC0
FFC0
0C00
0C00
0C00
FFC0
FFC0
FFC0
ENDCHAR
STARTCHAR 00B2
ENCODING 178
SWIDTH 500 0
DWIDTH 10 0
BBX 8 7 1 7
BITMAP
1F
1F
03
FF
80
FF
FF
ENDCHAR
STARTCHAR 00B3
ENCODING 179
SWIDTH 500 0
DWIDTH 10 0
BBX 9 7 0 7
BITMAP
0F80
0F80
0180
7F00
0180
FF80
FF80
ENDCHAR
STARTCHAR 00B4
ENCODING 180
SWIDTH 400 0
DWIDTH 8 0
BBX 5 5 1 12
BITMAP
38
38
70
70
E0
ENDCHAR
STARTCHAR 00B6
ENCODING 182
SWIDTH 900 0
DWIDTH 18 0
BBX 17 18 0 -3
BITMAP
3FFF80
7FFF80
FFFF80
E1C380
E1C380
E1C380
E1C380
FFC380
7FC380
3FC380
01C380
01C380
01C380
01C380
01C380
01C380
01C380
01C380
ENDCHAR
STARTCHAR 00B7
ENCODING 183
SWIDTH 250 0
DWIDTH 5 0
BBX 3 3 1 5
BITMAP
E0
E0
E0
ENDCHAR
STARTCHAR 00B8
ENCODING 184
SWIDTH 300 0
DWIDTH 6 0
BBX 3 3 1 -4
BITMAP
60
E0
C0
ENDCHAR
STARTCHAR 00B9
ENCODING 185
SWIDTH 200 0
DWIDTH 4 0
BBX 2 7 1 7
BITMAP
C0
C0
C0
C0
C0
C0
C0
ENDCHAR
STARTCHAR 00BA
ENCODING 186
SWIDTH 500 0
DWIDTH 10 0
BBX 8 6 1 6
BITMAP
7E
FF
C3
C3
FF
7E
ENDCHAR
STARTCHAR 00BB
ENCODING 187
SWIDTH 600 0
DWIDTH 12 0
BBX 11 9 0 2
BITMAP
8200
C300
F3C0
38E0
1860
38E0
F3C0
C300
8200
ENDCHAR
STARTCHAR 00BC
ENCODING 188
SWIDTH 950 0
DWIDTH 19 0
BBX 15 14 2 0
BITMAP
C0E0
C0C0
C180
C380
C300
C600
CE00
0D86
1986
3986
3186
61FE
E1FE
C006
ENDCHAR
STARTCHAR 00BD
ENCODING 189
SWIDTH 850 0
DWIDTH 17 0
BBX 14 14 2 0
BITMAP
C0E0
C0C0
C180
C380
C300
C600
CE00
0C7C
187C
380C
33FC
6200
E3FC
C3FC
ENDCHAR
STARTCHAR 00BE
ENCODING 190
SWIDTH 1100 0
DWIDTH 22 0
BBX 21 14 0 0
BITMAP
0F8380
0F8300
018600
7F0E00
018C00
FF9800
FFB800
003618
006618
00E618
00C618
0187F8
0387F8
030018
ENDCHAR
STARTCHAR 00BF
ENCODING 191
SWIDTH 600 0
DWIDTH 12 0
BBX 11 14 0 0
BITMAP
00E0
00E0
00E0
0000
7FE0
FFE0
FFC0
E000
E000
E000
E000
FE00
7E00
3E00
ENDCHAR
STARTCHAR 00C0
ENCODING 192
SWIDTH 1050 0
DWIDTH 21 0
BBX 20 20 0 0
BITMAP
01C000
01C000
00E000
00E000
007000
000000
007000
00F800
01F800
01DC00
039E00
078E00
070700
0E0700
0FFF80
1FFFC0
3FFFC0
3801E0
7800F0
F00070
ENDCHAR
STARTCHAR 00C1
ENCODING 193
SWIDTH 1050 0
DWIDTH 21 0
BBX 20 20 0 0
BITMAP
003800
003800
007000
007000
00E000
000000
007000
00F800
01F800
01DC00
039E00
078E00
070700
0E0700
0FFF80
1FFFC0
3FFFC0
3801E0
7800F0
F00070
ENDCHAR
STARTCHAR 00C2
ENCODING 194
SWIDTH 1050 0
DWIDTH 21 0
BBX 20 20 0 0
BITMAP
007000
00F000
00F800
01DC00
038C00
030E00
007000
00F800
01F800
01DC00
039E00
078E00
070700
0E0700
0FFF80
1FFFC0
3FFFC0
3801E0
7800F0
F00070
ENDCHAR
STARTCHAR 00C3
ENCODING 195
SWIDTH 1050 0
DWIDTH 21 0
BBX 20 19 0 0
BITMAP
07FF00
07FF00
07FF00
000000
000000
007000
00F800
01F800
01DC00
039E00
078E00
070700
0E0700
0FFF80
1FFFC0
3FFFC0
3801E0
7800F0
F00070
ENDCHAR
STARTCHAR 00C4
ENCODING 196
SWIDTH 1050 0
DWIDTH 21 0
BBX 20 17 0 0
BITMAP
039C00
039C00
039C00
007000
00F800
01F800
01DC00
039E00
078E00
070700
0E0700
0FFF80
1FFFC0
3FFFC0
3801E0
7800F0
F00070
ENDCHAR
STARTCHAR 00C5
ENCODING 197
SWIDTH 1050 0
DWIDTH 21 0
BBX 20 20 0 0
BITMAP
00FC00
018600
018600
018600
018600
00FC00
007000
00F800
01F800
01DC00
039E00
078E00
070700
0E0700
0FFF80
1FFFC0
3FFFC0
3801E0
7800F0
F00070
ENDCHAR
STARTCHAR 00C6
ENCODING 198
SWIDTH 1350 0
DWIDTH 27 0
BBX 25 14 1 0
BITMAP
00FFE000
01FFE000
03FFE000
039C0000
079C0000
0F1C0000
0E1FFF80
1E1FFF80
1FFFFF80
3FFC0000
7FFC0000
701FFF80
F00FFF80
E007FF80
ENDCHAR
STARTCHAR 00C7
ENCODING 199
SWIDTH 850 0
DWIDTH 17 0
BBX 15 18 1 -4
BITMAP
3FFE
7FFE
FFFE
E000
E000
E000
E000
E000
E000
E000
E000
FFFE
7FFE
3FFE
0000
0180
0380
0300
ENDCHAR
STARTCHAR 00C8
ENCODING 200
SWIDTH 850 0
DWIDTH 17 0
BBX 15 20 1 0
BITMAP
0E00
0E00
0700
0700
0380
0000
3F80
7F80
FF80
E000
E000
E000
FFFE
FFFE
FFFE
E000
E000
FFFE
7FFE
3FFE
ENDCHAR
STARTCHAR 00C9
ENCODING 201
SWIDTH 850 0
DWIDTH 17 0
BBX 15 20 1 0
BITMAP
01C0
01C0
0380
0380
0700
0000
3F80
7F80
FF80
E000
E000
E000
FFFE
FFFE
FFFE
E000
E000
FFFE
7FFE
3FFE
ENDCHAR
STARTCHAR 00CA
ENCODING 202
SWIDTH 850 0
DWIDTH 17 0
BBX 15 20 1 0
BITMAP
01C0
03C0
03E0
0770
0E30
0C38
3F80
7F80
FF80
E000
E000
E000
FFFE
FFFE
FFFE
E000
E000
FFFE
7FFE
3FFE
ENDCHAR
STARTCHAR 00CB
ENCODING 203
SWIDTH 850 0
DWIDTH 17 0
BBX 15 17 1 0
BITMAP
0E70
0E70
0E70
3F80
7F80
FF80
E000
E000
E000
FFFE
FFFE
FFFE
E000
E000
FFFE
7FFE
3FFE
ENDCHAR
STARTCHAR 00CC
ENCODING 204
SWIDTH 250 0
DWIDTH 5 0
BBX 5 20 0 0
BITMAP
E0
E0
70
70
38
00
70
70
70
70
70
70
70
70
70
70
70
70
70
70
ENDCHAR
STARTCHAR 00CD
ENCODING 205
SWIDTH 250 0
DWIDTH 5 0
BBX 5 20 1 0
BITMAP
38
38
70
70
E0
00
E0
E0
E0
E0
E0
E0
E0
E0
E0
E0
E0
E0
E0
E0
ENDCHAR
STARTCHAR 00CE
ENCODING 206
SWIDTH 250 0
DWIDTH 5 0
BBX 9 20 -2 0
BITMAP
1C00
3C00
3E00
7700
E300
C380
1C00
1C00
1C00
1C00
1C00
1C00
1C00
1C00
1C00
1C00
1C00
1C00
1C00
1C00
ENDCHAR
STARTCHAR 00CF
ENCODING 207
SWIDTH 250 0
DWIDTH 5 0
BBX 8 17 -1 0
BITMAP
E7
E7
E7
38
38
38
38
38
38
38
38
38
38
38
38
38
38
ENDCHAR
STARTCHAR 00D0
ENCODING 208
SWIDTH 950 0
DWIDTH 19 0
BBX 18 14 0 0
BITMAP
3FFF00
3FFF80
3FFFC0
3801C0
3801C0
3801C0
FFE1C0
FFE1C0
FFE1C0
3801C0
3801C0
3FFFC0
3FFF80
3FFF00
ENDCHAR
STARTCHAR 00D1
ENCODING 209
SWIDTH 900 0
DWIDTH 18 0
BBX 16 19 1 0
BITMAP
1FFC
1FFC
1FFC
0000
0000
E007
F007
F807
FC07
FE07
EF07
E787
E1C7
E0E7
E077
E03F
E01F
E00F
E007
ENDCHAR
STARTCHAR 00D2
ENCODING 210
SWIDTH 900 0
DWIDTH 18 0
BBX 16 20 1 0
BITMAP
0700
0700
0380
0380
01C0
0000
3FFC
7FFE
FFFF
E007
E007
E007
E007
E007
E007
E007
E007
FFFF
7FFE
3FFC
ENDCHAR
STARTCHAR 00D3
ENCODING 211
SWIDTH 900 0
DWIDTH 18 0
BBX 16 20 1 0
BITMAP
00E0
00E0
01C0
01C0
0380
0000
3FFC
7FFE
FFFF
E007
E007
E007
E007
E007
E007
E007
E007
FFFF
7FFE
3FFC
ENDCHAR
STARTCHAR 00D4
ENCODING 212
SWIDTH 900 0
DWIDTH 18 0
BBX 16 20 1 0
BITMAP
01C0
03C0
03E0
0770
0E30
0C38
3FFC
7FFE
FFFF
E007
E007
E007
E007
E007
E007
E007
E007
FFFF
7FFE
3FFC
ENDCHAR
STARTCHAR 00D5
ENCODING 213
SWIDTH 900 0
DWIDTH 18 0
BBX 16 19 1 0
BITMAP
3FF8
3FF8
3FF8
0000
0000
3FFC
7FFE
FFFF
E007
E007
E007
E007
E007
E007
E007
E007
FFFF
7FFE
3FFC
ENDCHAR
STARTCHAR 00D6
ENCODING 214
SWIDTH 900 0
DWIDTH 18 0
BBX 16 17 1 0
BITMAP
0E70
0E70
0E70
3FFC
7FFE
FFFF
E007
E007
E007
E007
E007
E007
E007
E007
FFFF
7FFE
3FFC
ENDCHAR
STARTCHAR 00D7
ENCODING 215
SWIDTH 600 0
DWIDTH 12 0
BBX 8 8 2 3
BITMAP
42
E7
7E
3C
3C
7E
E7
42
ENDCHAR
STARTCHAR 00D8
ENCODING 216
SWIDTH 900 0
DWIDTH 18 0
BBX 16 17 1 -2
BITMAP
000F
3FFE
7FFC
FFFE
E077
E0E7
E0E7
E1C7
E387
E707
E707
EE07
FFFF
7FFE
3FFC
7000
E000
ENDCHAR
STARTCHAR 00D9
ENCODING 217
SWIDTH 900 0
DWIDTH 18 0
BBX 16 20 1 0
BITMAP
0700
0700
0380
0380
01C0
0000
E007
E007
E007
E007
E007
E007
E007
E007
E007
E007
F00F
FFFF
7FFE
3FFC
ENDCHAR
STARTCHAR 00DA
ENCODING 218
SWIDTH 900 0
DWIDTH 18 0
BBX 16 20 1 0
BITMAP
00E0
00E0
01C0
01C0
0380
0000
E007
E007
E007
E007
E007
E007
E007
E007
E007
E007
F00F
FFFF
7FFE
3FFC
ENDCHAR
STARTCHAR 00DB
ENCODING 219
SWIDTH 900 0
DWIDTH 18 0
BBX 16 20 1 0
BITMAP
01C0
03C0
03E0
0770
0E30
0C38
E007
E007
E007
E007
E007
E007
E007
E007
E007
E007
F00F
FFFF
7FFE
3FFC
ENDCHAR
STARTCHAR 00DC
ENCODING 220
SWIDTH 900 0
DWIDTH 18 0
BBX 16 17 1 0
BITMAP
0E70
0E70
0E70
E007
E007
E007
E007
E007
E007
E007
E007
E007
E007
F00F
FFFF
7FFE
3FFC
ENDCHAR
STARTCHAR 00DD
ENCODING 221
SWIDTH 950 0
DWIDTH 19 0
BBX 17 20 1 0
BITMAP
007000
007000
00E000
00E000
01C000
000000
F00380
780F00
3C1E00
1E3C00
0F7800
07F000
03E000
01C000
01C000
01C000
01C000
01C000
01C000
01C000
ENDCHAR
STARTCHAR 00DE
ENCODING 222
SWIDTH 900 0
DWIDTH 18 0
BBX 16 14 1 0
BITMAP
E000
E000
FFFC
FFFE
FFFF
E007
E007
E007
E007
FFFF
FFFE
FFFC
E000
E000
ENDCHAR
STARTCHAR 00DF
ENCODING 223
SWIDTH 950 0
DWIDTH 19 0
BBX 17 15 1 0
BITMAP
7F8000
FFC000
FFC000
E1C000
E1C000
E1FF00
E1FF80
E0FF80
E00380
E00380
E00380
E00380
E3FF80
E3FF00
E3FE00
ENDCHAR
STARTCHAR 00E0
ENCODING 224
SWIDTH 850 0
DWIDTH 17 0
BBX 15 17 1 0
BITMAP
0700
0700
0380
0380
01C0
0000
01F8
01FC
01FE
000E
7FFE
FFFE
E00E
E00E
FFFE
FFFC
7FF8
ENDCHAR
STARTCHAR 00E1
ENCODING 225
SWIDTH 850 0
DWIDTH 17 0
BBX 15 17 1 0
BITMAP
00E0
00E0
01C0
01C0
0380
0000
01F8
01FC
01FE
000E
7FFE
FFFE
E00E
E00E
FFFE
FFFC
7FF8
ENDCHAR
STARTCHAR 00E2
ENCODING 226
SWIDTH 850 0
DWIDTH 17 0
BBX 15 17 1 0
BITMAP
01C0
03C0
03E0
0770
0E30
0C38
01F8
01FC
01FE
000E
7FFE
FFFE
E00E
E00E
FFFE
FFFC
7FF8
ENDCHAR
STARTCHAR 00E3
ENCODING 227
SWIDTH 850 0
DWIDTH 17 0
BBX 15 16 1 0
BITMAP
1FFC
1FFC
1FFC
0000
0000
01F8
01FC
01FE
000E
7FFE
FFFE
E00E
E00E
FFFE
FFFC
7FF8
ENDCHAR
STARTCHAR 00E4
ENCODING 228
SWIDTH 850 0
DWIDTH 17 0
BBX 15 14 1 0
BITMAP
0E70
0E70
0E70
01F8
01FC
01FE
000E
7FFE
FFFE
E00E
E00E
FFFE
FFFC
7FF8
ENDCHAR
STARTCHAR 00E5
ENCODING 229
SWIDTH 850 0
DWIDTH 17 0
BBX 15 17 1 0
BITMAP
07E0
0C30
0C30
0C30
0C30
07E0
01F8
01FC
01FE
000E
7FFE
FFFE
E00E
E00E
FFFE
FFFC
7FF8
ENDCHAR
STARTCHAR 00E6
ENCODING 230
SWIDTH 1350 0
DWIDTH 27 0
BBX 25 11 1 0
BITMAP
03F7FF00
03FFFF80
001FFF80
001C0380
7FFC0380
FFFFFF80
E01FFF80
E01C0000
FFFC0000
FFFFE000
7FF7E000
ENDCHAR
STARTCHAR 00E7
ENCODING 231
SWIDTH 750 0
DWIDTH 15 0
BBX 13 15 1 -4
BITMAP
3FF8
7FF8
FFF8
E000
E000
E000
E000
E000
FFF8
7FF8
3FF8
0000
0300
0700
0600
ENDCHAR
STARTCHAR 00E8
ENCODING 232
SWIDTH 800 0
DWIDTH 16 0
BBX 14 17 1 0
BITMAP
0E00
0E00
0700
0700
0380
0000
3FF8
7FFC
FFFC
E01C
E01C
FFFC
FFFC
E000
FF00
7F00
3F00
ENDCHAR
STARTCHAR 00E9
ENCODING 233
SWIDTH 800 0
DWIDTH 16 0
BBX 14 17 1 0
BITMAP
01C0
01C0
0380
0380
0700
0000
3FF8
7FFC
FFFC
E01C
E01C
FFFC
FFFC
E000
FF00
7F00
3F00
ENDCHAR
STARTCHAR 00EA
ENCODING 234
SWIDTH 800 0
DWIDTH 16 0
BBX 14 17 1 0
BITMAP
0380
0780
07C0
0EE0
1C60
1870
3FF8
7FFC
FFFC
E01C
E01C
FFFC
FFFC
E000
FF00
7F00
3F00
ENDCHAR
STARTCHAR 00EB
ENCODING 235
SWIDTH 800 0
DWIDTH 16 0
BBX 14 14 1 0
BITMAP
1CE0
1CE0
1CE0
3FF8
7FFC
FFFC
E01C
E01C
FFFC
FFFC
E000
FF00
7F00
3F00
ENDCHAR
STARTCHAR 00EC
ENCODING 236
SWIDTH 250 0
DWIDTH 5 0
BBX 5 17 0 0
BITMAP
E0
E0
70
70
38
00
70
70
70
70
70
70
70
70
70
70
70
ENDCHAR
STARTCHAR 00ED
ENCODING 237
SWIDTH 250 0
DWIDTH 5 0
BBX 5 17 1 0
BITMAP
38
38
70
70
E0
00
E0
E0
E0
E0
E0
E0
E0
E0
E0
E0
E0
ENDCHAR
STARTCHAR 00EE
ENCODING 238
SWIDTH 400 0
DWIDTH 8 0
BBX 9 17 0 0
BITMAP
1C00
3C00
3E00
7700
E300
C380
3800
3800
3800
3800
3800
3800
3800
3800
3800
3800
3800
ENDCHAR
STARTCHAR 00EF
ENCODING 239
SWIDTH 300 0
DWIDTH 6 0
BBX 8 14 -1 0
BITMAP
E7
E7
E7
38
38
38
38
38
38
38
38
38
38
38
ENDCHAR
STARTCHAR 00F0
ENCODING 240
SWIDTH 800 0
DWIDTH 16 0
BBX 16 16 1 0
BITMAP
0007
1FFE
1FFC
1FFC
001C
001C
3FFC
7FFC
FFFC
E01C
E01C
E01C
E01C
FFFC
7FF8
3FF0
ENDCHAR
STARTCHAR 00F1
ENCODING 241
SWIDTH 800 0
DWIDTH 16 0
BBX 14 16 1 0
BITMAP
3FF8
3FF8
3FF8
0000
0000
3FF0
7FF8
FFFC
E01C
E01C
E01C
E01C
E01C
E01C
E01C
E01C
ENDCHAR
STARTCHAR 00F2
ENCODING 242
SWIDTH 800 0
DWIDTH 16 0
BBX 14 17 1 0
BITMAP
0E00
0E00
0700
0700
0380
0000
3FF0
7FF8
FFFC
E01C
E01C
E01C
E01C
E01C
FFFC
7FF8
3FF0
ENDCHAR
STARTCHAR 00F3
ENCODING 243
SWIDTH 800 0
DWIDTH 16 0
BBX 14 17 1 0
BITMAP
01C0
01C0
0380
0380
0700
0000
3FF0
7FF8
FFFC
E01C
E01C
E01C
E01C
E01C
FFFC
7FF8
3FF0
ENDCHAR
STARTCHAR 00F4
ENCODING 244
SWIDTH 800 0
DWIDTH 16 0
BBX 14 17 1 0
BITMAP
0380
0780
07C0
0EE0
1C60
1870
3FF0
7FF8
FFFC
E01C
E01C
E01C
E01C
E01C
FFFC
7FF8
3FF0
ENDCHAR
STARTCHAR 00F5
ENCODING 245
SWIDTH 800 0
DWIDTH 16 0
BBX 14 16 1 0
BITMAP
3FF8
3FF8
3FF8
0000
0000
3FF0
7FF8
FFFC
E01C
E01C
E01C
E01C
E01C
FFFC
7FF8
3FF0
ENDCHAR
STARTCHAR 00F6
ENCODING 246
SWIDTH 800 0
DWIDTH 16 0
BBX 14 14 1 0
BITMAP
1CE0
1CE0
1CE0
3FF0
7FF8
FFFC
E01C
E01C
E01C
E01C
E01C
FFFC
7FF8
3FF0
ENDCHAR
STARTCHAR 00F7
ENCODING 247
SWIDTH 600 0
DWIDTH 12 0
BBX 10 10 1 2
BITMAP
1C00
1C00
1C00
0000
FFC0
FFC0
FFC0
1C00
1C00
1C00
ENDCHAR
STARTCHAR 00F8
ENCODING 248
SWIDTH 800 0
DWIDTH 16 0
BBX 14 15 1 -2
BITMAP
001C
0038
3FF0
7FF8
FFFC
E1DC
E39C
E31C
E61C
EE1C
FFFC
7FF8
3FF0
7000
E000
ENDCHAR
STARTCHAR 00F9
ENCODING 249
SWIDTH 800 0
DWIDTH 16 0
BBX 14 17 1 0
BITMAP
0E00
0E00
0700
0700
0380
0000
E01C
E01C
E01C
E01C
E01C
E01C
E01C
E01C
FFFC
7FF8
3FF0
ENDCHAR
STARTCHAR 00FA
ENCODING 250
SWIDTH 800 0
DWIDTH 16 0
BBX 14 17 1 0
BITMAP
01C0
01C0
0380
0380
0700
0000
E01C
E01C
E01C
E01C
E01C
E01C
E01C
E01C
FFFC
7FF8
3FF0
ENDCHAR
STARTCHAR 00FB
ENCODING 251
SWIDTH 800 0
DWIDTH 16 0
BBX 14 17 1 0
BITMAP
0380
0780
07C0
0EE0
1C60
1870
E01C
E01C
E01C
E01C
E01C
E01C
E01C
E01C
FFFC
7FF8
3FF0
ENDCHAR
STARTCHAR 00FC
ENCODING 252
SWIDTH 800 0
DWIDTH 16 0
BBX 14 14 1 0
BITMAP
1CE0
1CE0
1CE0
E01C
E01C
E01C
E01C
E01C
E01C
E01C
E01C
FFFC
7FF8
3FF0
ENDCHAR
STARTCHAR 00FD
ENCODING 253
SWIDTH 800 0
DWIDTH 16 0
BBX 14 21 1 -4
BITMAP
01C0
01C0
0380
0380
0700
0000
E01C
E01C
E01C
E01C
E01C
E01C
E01C
FFFC
7FFC
3FFC
001C
001C
03FC
03FC
03F8
ENDCHAR
STARTCHAR 00FE
ENCODING 254
SWIDTH 800 0
DWIDTH 16 0
BBX 14 17 1 -3
BITMAP
E000
E000
E000
FFF0
FFF8
FFFC
E01C
E01C
E01C
E01C
E01C
FFFC
FFF8
FFF0
E000
E000
E000
ENDCHAR
STARTCHAR 00FF
ENCODING 255
SWIDTH 800 0
DWIDTH 16 0
BBX 14 18 1 -4
BITMAP
1CE0
1CE0
1CE0
E01C
E01C
E01C
E01C
E01C
E01C
E01C
FFFC
7FFC
3FFC
001C
001C
03FC
03FC
03F8
ENDCHAR
STARTCHAR 0100
ENCODING 256
SWIDTH 1050 0
DWIDTH 21 0
BBX 20 19 0 0
BITMAP
07FF00
07FF00
07FF00
000000
000000
007000
00F800
01F800
01DC00
039E00
078E00
070700
0E0700
0FFF80
1FFFC0
3FFFC0
3801E0
7800F0
F00070
ENDCHAR
STARTCHAR 0101
ENCODING 257
SWIDTH 850 0
DWIDTH 17 0
BBX 15 16 1 0
BITMAP
1FFC
1FFC
1FFC
0000
0000
01F8
01FC
01FE
000E
7FFE
FFFE
E00E
E00E
FFFE
FFFC
7FF8
ENDCHAR
STARTCHAR 0102
ENCODING 258
SWIDTH 1050 0
DWIDTH 21 0
BBX 20 20 0 0
BITMAP
030600
030600
030600
03FE00
01FC00
000000
007000
00F800
01F800
01DC00
039E00
078E00
070700
0E0700
0FFF80
1FFFC0
3FFFC0
3801E0
7800F0
F00070
ENDCHAR
STARTCHAR 0103
ENCODING 259
SWIDTH 850 0
DWIDTH 17 0
BBX 15 17 1 0
BITMAP
0C18
0C18
0C18
0FF8
07F0
0000
01F8
01FC
01FE
000E
7FFE
FFFE
E00E
E00E
FFFE
FFFC
7FF8
ENDCHAR
STARTCHAR 0104
ENCODING 260
SWIDTH 1050 0
DWIDTH 21 0
BBX 21 19 0 -5
BITMAP
00E000
01F000
01F800
03DC00
039C00
078E00
0F0600
0E0700
1FFF80
3FFF80
3FFFC0
7801E0
7000E0
E000F0
0000E0
0001C0
0001F8
0001F8
0000F8
ENDCHAR
STARTCHAR 0105
ENCODING 261
SWIDTH 850 0
DWIDTH 17 0
BBX 15 16 1 -5
BITMAP
01F8
01FC
01FE
000E
7FFE
FFFE
E00E
E00E
FFFE
FFFC
7FF8
0300
0700
07E0
07E0
03E0
ENDCHAR
STARTCHAR 0106
ENCODING 262
SWIDTH 850 0
DWIDTH 17 0
BBX 15 20 1 0
BITMAP
01C0
01C0
0380
0380
0700
0000
3FFE
7FFE
FFFE
E000
E000
E000
E000
E000
E000
E000
E000
FFFE
7FFE
3FFE
ENDCHAR
STARTCHAR 0107
ENCODING 263
SWIDTH 750 0
DWIDTH 15 0
BBX 13 17 1 0
BITMAP
01C0
01C0
0380
0380
0700
0000
3FF8
7FF8
FFF8
E000
E000
E000
E000
E000
FFF8
7FF8
3FF8
ENDCHAR
STARTCHAR 010A
ENCODING 266
SWIDTH 850 0
DWIDTH 17 0
BBX 15 17 1 0
BITMAP
0380
0380
0380
3FFE
7FFE
FFFE
E000
E000
E000
E000
E000
E000
E000
E000
FFFE
7FFE
3FFE
ENDCHAR
STARTCHAR 010B
ENCODING 267
SWIDTH 750 0
DWIDTH 15 0
BBX 13 14 1 0
BITMAP
0380
0380
0380
3FF8
7FF8
FFF8
E000
E000
E000
E000
E000
FFF8
7FF8
3FF8
ENDCHAR
STARTCHAR 010C
ENCODING 268
SWIDTH 850 0
DWIDTH 17 0
BBX 15 20 1 0
BITMAP
1C38
0E30
0770
03E0
03C0
01C0
3FFE
7FFE
FFFE
E000
E000
E000
E000
E000
E000
E000
E000
FFFE
7FFE
3FFE
ENDCHAR
STARTCHAR 010D
ENCODING 269
SWIDTH 750 0
DWIDTH 15 0
BBX 13 17 1 0
BITMAP
3870
1C60
0EE0
07C0
0780
0380
3FF8
7FF8
FFF8
E000
E000
E000
E000
E000
FFF8
7FF8
3FF8
ENDCHAR
STARTCHAR 010E
ENCODING 270
SWIDTH 900 0
DWIDTH 18 0
BBX 16 20 1 0
BITMAP
3870
1C60
0EE0
07C0
0780
0380
FFFC
FFFE
FFFF
E007
E007
E007
E007
E007
E007
E007
E007
FFFF
FFFE
FFFC
ENDCHAR
STARTCHAR 010F
ENCODING 271
SWIDTH 1000 0
DWIDTH 20 0
BBX 19 14 1 0
BITMAP
001CE0
001CE0
001CC0
3FFCC0
7FFCC0
FFFC00
E01C00
E01C00
E01C00
E01C00
E01C00
FFFC00
7FF800
3FF000
ENDCHAR
STARTCHAR 0110
ENCODING 272
SWIDTH 950 0
DWIDTH 19 0
BBX 18 14 0 0
BITMAP
3FFF00
3FFF80
3FFFC0
3801C0
3801C0
3801C0
FFE1C0
FFE1C0
FFE1C0
3801C0
3801C0
3FFFC0
3FFF80
3FFF00
ENDCHAR
STARTCHAR 0111
ENCODING 273
SWIDTH 800 0
DWIDTH 16 0
BBX 15 14 1 0
BITMAP
0FFE
0FFE
0FFE
3FFC
7FFC
FFFC
E01C
E01C
E01C
E01C
E01C
FFFC
7FF8
3FF0
ENDCHAR
STARTCHAR 0112
ENCODING 274
SWIDTH 850 0
DWIDTH 17 0
BBX 15 19 1 0
BITMAP
3FF8
3FF8
3FF8
0000
0000
3F80
7F80
FF80
E000
E000
E000
FFFE
FFFE
FFFE
E000
E000
FFFE
7FFE
3FFE
ENDCHAR
STARTCHAR 0113
ENCODING 275
SWIDTH 800 0
DWIDTH 16 0
BBX 14 16 1 0
BITMAP
3FF8
3FF8
3FF8
0000
0000
3FF8
7FFC
FFFC
E01C
E01C
FFFC
FFFC
E000
FF00
7F00
3F00
ENDCHAR
STARTCHAR 0114
ENCODING 276
SWIDTH 850 0
DWIDTH 17 0
BBX 15 20 1 0
BITMAP
1830
1830
1830
1FF0
0FE0
0000
3F80
7F80
FF80
E000
E000
E000
FFFE
FFFE
FFFE
E000
E000
FFFE
7FFE
3FFE
ENDCHAR
STARTCHAR 0115
ENCODING 277
SWIDTH 800 0
DWIDTH 16 0
BBX 14 17 1 0
BITMAP
1830
1830
1830
1FF0
0FE0
0000
3FF8
7FFC
FFFC
E01C
E01C
FFFC
FFFC
E000
FF00
7F00
3F00
ENDCHAR
STARTCHAR 0116
ENCODING 278
SWIDTH 850 0
DWIDTH 17 0
BBX 15 17 1 0
BITMAP
0380
0380
0380
3F80
7F80
FF80
E000
E000
E000
FFFE
FFFE
FFFE
E000
E000
FFFE
7FFE
3FFE
ENDCHAR
STARTCHAR 0117
ENCODING 279
SWIDTH 800 0
DWIDTH 16 0
BBX 14 14 1 0
BITMAP
0700
0700
0700
3FF8
7FFC
FFFC
E01C
E01C
FFFC
FFFC
E000
FF00
7F00
3F00
ENDCHAR
STARTCHAR 0118
ENCODING 280
SWIDTH 850 0
DWIDTH 17 0
BBX 16 19 1 -5
BITMAP
3F80
7F80
FF80
E000
E000
E000
FFFE
FFFE
FFFE
E000
E000
FFFE
7FFE
3FFE
001C
0038
003F
003F
001F
ENDCHAR
STARTCHAR 0119
ENCODING 281
SWIDTH 800 0
DWIDTH 16 0
BBX 14 16 1 -5
BITMAP
3FF8
7FFC
FFFC
E01C
E01C
FFFC
FFFC
E000
FF00
7F00
3F00
0C00
1C00
1F80
1F80
0F80
ENDCHAR
STARTCHAR 011A
ENCODING 282
SWIDTH 850 0
DWIDTH 17 0
BBX 15 20 1 0
BITMAP
1C38
0E30
0770
03E0
03C0
01C0
3F80
7F80
FF80
E000
E000
E000
FFFE
FFFE
FFFE
E000
E000
FFFE
7FFE
3FFE
ENDCHAR
STARTCHAR 011B
ENCODING 283
SWIDTH 800 0
DWIDTH 16 0
BBX 14 17 1 0
BITMAP
3870
1C60
0EE0
07C0
0780
0380
3FF8
7FFC
FFFC
E01C
E01C
FFFC
FFFC
E000
FF00
7F00
3F00
ENDCHAR
STARTCHAR 011E
ENCODING 286
SWIDTH 900 0
DWIDTH 18 0
BBX 16 20 1 0
BITMAP
1830
1830
1830
1FF0
0FE0
0000
3F80
7F80
FF80
E000
E000
E000
E007
E007
E007
E007
E007
FFFF
7FFE
3FFC
ENDCHAR
STARTCHAR 011F
ENCODING 287
SWIDTH 800 0
DWIDTH 16 0
BBX 14 21 1 -4
BITMAP
1830
1830
1830
1FF0
0FE0
0000
3FF0
7FF8
FFFC
E01C
E01C
E01C
E01C
FFFC
FFFC
3FFC
001C
001C
03FC
03FC
03F8
ENDCHAR
STARTCHAR 0120
ENCODING 288
SWIDTH 900 0
DWIDTH 18 0
BBX 16 17 1 0
BITMAP
0380
0380
0380
3F80
7F80
FF80
E000
E000
E000
E007
E007
E007
E007
E007
FFFF
7FFE
3FFC
ENDCHAR
STARTCHAR 0121
ENCODING 289
SWIDTH 800 0
DWIDTH 16 0
BBX 14 18 1 -4
BITMAP
0380
0380
0380
3FF0
7FF8
FFFC
E01C
E01C
E01C
E01C
FFFC
FFFC
3FFC
001C
001C
03FC
03FC
03F8
ENDCHAR
STARTCHAR 0122
ENCODING 290
SWIDTH 900 0
DWIDTH 18 0
BBX 16 18 1 -4
BITMAP
3F80
7F80
FF80
E000
E000
E000
E007
E007
E007
E007
E007
FFFF
7FFE
3FFC
0000
0180
0380
0300
ENDCHAR
STARTCHAR 0123
ENCODING 291
SWIDTH 800 0
DWIDTH 16 0
BBX 14 19 1 -4
BITMAP
0180
0380
0300
0000
3FF0
7FF8
FFFC
E01C
E01C
E01C
E01C
FFFC
FFFC
3FFC
001C
001C
03FC
03FC
03F8
ENDCHAR
STARTCHAR 0126
ENCODING 294
SWIDTH 900 0
DWIDTH 18 0
BBX 16 14 1 0
BITMAP
E007
E007
FFFF
FFFF
FFFF
E007
FFFF
FFFF
FFFF
E007
E007
E007
E007
E007
ENDCHAR
STARTCHAR 0127
ENCODING 295
SWIDTH 800 0
DWIDTH 16 0
BBX 15 14 0 0
BITMAP
FFE0
FFE0
FFE0
7FF8
7FFC
7FFE
700E
700E
700E
700E
700E
700E
700E
700E
ENDCHAR
STARTCHAR 012A
ENCODING 298
SWIDTH 250 0
DWIDTH 5 0
BBX 11 19 -3 0
BITMAP
FFE0
FFE0
FFE0
0000
0000
0E00
0E00
0E00
0E00
0E00
0E00
0E00
0E00
0E00
0E00
0E00
0E00
0E00
0E00
ENDCHAR
STARTCHAR 012B
ENCODING 299
SWIDTH 400 0
DWIDTH 8 0
BBX 11 16 -1 0
BITMAP
FFE0
FFE0
FFE0
0000
0000
0E00
0E00
0E00
0E00
0E00
0E00
0E00
0E00
0E00
0E00
0E00
ENDCHAR
STARTCHAR 012C
ENCODING 300
SWIDTH 250 0
DWIDTH 5 0
BBX 9 20 -2 0
BITMAP
C180
C180
C180
FF80
7F00
0000
1C00
1C00
1C00
1C00
1C00
1C00
1C00
1C00
1C00
1C00
1C00
1C00
1C00
1C00
ENDCHAR
STARTCHAR 012D
ENCODING 301
SWIDTH 300 0
DWIDTH 6 0
BBX 9 17 -1 0
BITMAP
C180
C180
C180
FF80
7F00
0000
3800
3800
3800
3800
3800
3800
3800
3800
3800
3800
3800
ENDCHAR
STARTCHAR 012E
ENCODING 302
SWIDTH 250 0
DWIDTH 5 0
BBX 6 19 -1 -5
BITMAP
38
38
38
38
38
38
38
38
38
38
38
38
38
38
60
E0
FC
FC
7C
ENDCHAR
STARTCHAR 012F
ENCODING 303
SWIDTH 250 0
DWIDTH 5 0
BBX 6 19 -1 -5
BITMAP
38
38
38
38
38
38
38
38
38
38
38
38
38
38
60
E0
FC
FC
7C
ENDCHAR
STARTCHAR 0130
ENCODING 304
SWIDTH 250 0
DWIDTH 5 0
BBX 3 17 1 0
BITMAP
E0
E0
E0
E0
E0
E0
E0
E0
E0
E0
E0
E0
E0
E0
E0
E0
E0
ENDCHAR
STARTCHAR 0131
ENCODING 305
SWIDTH 250 0
DWIDTH 5 0
BBX 3 11 1 0
BITMAP
E0
E0
E0
E0
E0
E0
E0
E0
E0
E0
E0
ENDCHAR
STARTCHAR 0132
ENCODING 306
SWIDTH 800 0
DWIDTH 16 0
BBX 13 14 1 0
BITMAP
E038
E038
E038
E038
E038
E038
E038
E038
E038
E038
E078
EFF8
EFF0
EFE0
ENDCHAR
STARTCHAR 0133
ENCODING 307
SWIDTH 550 0
DWIDTH 11 0
BBX 9 17 1 -3
BITMAP
E380
E380
E380
E380
E380
E380
E380
E380
E380
E380
E380
E380
E380
E380
1F80
1F00
1E00
ENDCHAR
STARTCHAR 0136
ENCODING 310
SWIDTH 800 0
DWIDTH 16 0
BBX 14 18 1 -4
BITMAP
E03C
E078
E0F0
E1E0
E780
EF00
FE00
FF00
EF80
E3C0
E1E0
E0F0
E078
E03C
0000
0300
0700
0600
ENDCHAR
STARTCHAR 0137
ENCODING 311
SWIDTH 750 0
DWIDTH 15 0
BBX 13 18 1 -4
BITMAP
E000
E000
E000
E078
E0F0
E1C0
E780
EF00
FC00
EF00
E780
E3C0
E1E0
E078
0000
0300
0700
0600
ENDCHAR
STARTCHAR 0139
ENCODING 313
SWIDTH 750 0
DWIDTH 15 0
BBX 14 20 1 0
BITMAP
3800
3800
7000
7000
E000
0000
E000
E000
E000
E000
E000
E000
E000
E000
E000
E000
F000
FFFC
7FFC
3FFC
ENDCHAR
STARTCHAR 013A
ENCODING 314
SWIDTH 250 0
DWIDTH 5 0
BBX 5 20 1 0
BITMAP
38
38
70
70
E0
00
E0
E0
E0
E0
E0
E0
E0
E0
E0
E0
E0
E0
E0
E0
ENDCHAR
STARTCHAR 013B
ENCODING 315
SWIDTH 750 0
DWIDTH 15 0
BBX 14 18 1 -4
BITMAP
E000
E000
E000
E000
E000
E000
E000
E000
E000
E000
F000
FFFC
7FFC
3FFC
0000
0300
0700
0600
ENDCHAR
STARTCHAR 013C
ENCODING 316
SWIDTH 250 0
DWIDTH 5 0
BBX 3 18 1 -4
BITMAP
E0
E0
E0
E0
E0
E0
E0
E0
E0
E0
E0
E0
E0
E0
00
60
E0
C0
ENDCHAR
STARTCHAR 013D
ENCODING 317
SWIDTH 750 0
DWIDTH 15 0
BBX 14 14 1 0
BITMAP
E1C0
E1C0
E180
E180
E180
E000
E000
E000
E000
E000
F000
FFFC
7FFC
3FFC
ENDCHAR
STARTCHAR 013E
ENCODING 318
SWIDTH 450 0
DWIDTH 9 0
BBX 7 14 1 0
BITMAP
EE
EE
EC
EC
EC
E0
E0
E0
E0
E0
E0
E0
E0
E0
ENDCHAR
STARTCHAR 013F
ENCODING 319
SWIDTH 750 0
DWIDTH 15 0
BBX 14 14 1 0
BITMAP
E000
E000
E000
E000
E000
E1C0
E1C0
E1C0
E000
E000
F000
FFFC
7FFC
3FFC
ENDCHAR
STARTCHAR 0140
ENCODING 320
SWIDTH 400 0
DWIDTH 8 0
BBX 7 14 1 0
BITMAP
E0
E0
E0
E0
E0
E0
EE
EE
EE
E0
E0
E0
E0
E0
ENDCHAR
STARTCHAR 0141
ENCODING 321
SWIDTH 800 0
DWIDTH 16 0
BBX 16 14 0 0
BITMAP
3800
3800
3BE0
FFE0
FF00
F800
3800
3800
3800
3800
3C00
3FFF
1FFF
0FFF
ENDCHAR
STARTCHAR 0142
ENCODING 322
SWIDTH 300 0
DWIDTH 6 0
BBX 7 14 0 0
BITMAP
38
38
38
3E
FE
FC
38
38
38
38
38
38
38
38
ENDCHAR
STARTCHAR 0143
ENCODING 323
SWIDTH 900 0
DWIDTH 18 0
BBX 16 20 1 0
BITMAP
00E0
00E0
01C0
01C0
0380
0000
E007
F007
F807
FC07
FE07
EF07
E787
E1C7
E0E7
E077
E03F
E01F
E00F
E007
ENDCHAR
STARTCHAR 0144
ENCODING 324
SWIDTH 800 0
DWIDTH 16 0
BBX 14 17 1 0
BITMAP
01C0
01C0
0380
0380
0700
0000
3FF0
7FF8
FFFC
E01C
E01C
E01C
E01C
E01C
E01C
E01C
E01C
ENDCHAR
STARTCHAR 0145
ENCODING 325
SWIDTH 900 0
DWIDTH 18 0
BBX 16 18 1 -4
BITMAP
E007
F007
F807
FC07
FE07
EF07
E787
E1C7
E0E7
E077
E03F
E01F
E00F
E007
0000
0180
0380
0300
ENDCHAR
STARTCHAR 0146
ENCODING 326
SWIDTH 800 0
DWIDTH 16 0
BBX 14 15 1 -4
BITMAP
3FF0
7FF8
FFFC
E01C
E01C
E01C
E01C
E01C
E01C
E01C
E01C
0000
0300
0700
0600
ENDCHAR
STARTCHAR 0147
ENCODING 327
SWIDTH 900 0
DWIDTH 18 0
BBX 16 20 1 0
BITMAP
1C38
0E30
0770
03E0
03C0
01C0
E007
F007
F807
FC07
FE07
EF07
E787
E1C7
E0E7
E077
E03F
E01F
E00F
E007
ENDCHAR
STARTCHAR 0148
ENCODING 328
SWIDTH 800 0
DWIDTH 16 0
BBX 14 17 1 0
BITMAP
3870
1C60
0EE0
07C0
0780
0380
3FF0
7FF8
FFFC
E01C
E01C
E01C
E01C
E01C
E01C
E01C
E01C
ENDCHAR
STARTCHAR 014A
ENCODING 330
SWIDTH 900 0
DWIDTH 18 0
BBX 16 19 1 -5
BITMAP
E007
F007
F807
FC07
FE07
EF07
E787
E3C7
E1E7
E0F7
E07F
E03F
E01F
E00F
0007
0007
003F
003E
003C
ENDCHAR
STARTCHAR 014B
ENCODING 331
SWIDTH 800 0
DWIDTH 16 0
BBX 14 16 1 -5
BITMAP
3FF0
7FF8
FFFC
E01C
E01C
E01C
E01C
E01C
E01C
E01C
E01C
001C
001C
00FC
00F8
00F0
ENDCHAR
STARTCHAR 014C
ENCODING 332
SWIDTH 900 0
DWIDTH 18 0
BBX 16 19 1 0
BITMAP
3FF8
3FF8
3FF8
0000
0000
3FFC
7FFE
FFFF
E007
E007
E007
E007
E007
E007
E007
E007
FFFF
7FFE
3FFC
ENDCHAR
STARTCHAR 014D
ENCODING 333
SWIDTH 800 0
DWIDTH 16 0
BBX 14 16 1 0
BITMAP
3FF8
3FF8
3FF8
0000
0000
3FF0
7FF8
FFFC
E01C
E01C
E01C
E01C
E01C
FFFC
7FF8
3FF0
ENDCHAR
STARTCHAR 014E
ENCODING 334
SWIDTH 900 0
DWIDTH 18 0
BBX 16 20 1 0
BITMAP
1830
1830
1830
1FF0
0FE0
0000
3FFC
7FFE
FFFF
E007
E007
E007
E007
E007
E007
E007
E007
FFFF
7FFE
3FFC
ENDCHAR
STARTCHAR 014F
ENCODING 335
SWIDTH 800 0
DWIDTH 16 0
BBX 14 17 1 0
BITMAP
1830
1830
1830
1FF0
0FE0
0000
3FF0
7FF8
FFFC
E01C
E01C
E01C
E01C
E01C
FFFC
7FF8
3FF0
ENDCHAR
STARTCHAR 0150
ENCODING 336
SWIDTH 900 0
DWIDTH 18 0
BBX 16 20 1 0
BITMAP
071C
0738
0E38
0E70
1C60
0000
3FFC
7FFE
FFFF
E007
E007
E007
E007
E007
E007
E007
E007
FFFF
7FFE
3FFC
ENDCHAR
STARTCHAR 0151
ENCODING 337
SWIDTH 800 0
DWIDTH 16 0
BBX 14 17 1 0
BITMAP
0E38
0E70
1C70
1CE0
38C0
0000
3FF0
7FF8
FFFC
E01C
E01C
E01C
E01C
E01C
FFFC
7FF8
3FF0
ENDCHAR
STARTCHAR 0152
ENCODING 338
SWIDTH 1450 0
DWIDTH 29 0
BBX 26 14 1 0
BITMAP
3FFBF000
7FFFF000
FFFFF000
E00E0000
E00E0000
E00E0000
E00FFFC0
E00FFFC0
E00FFFC0
E00E0000
E00E0000
FFFFFFC0
7FFFFFC0
3FFBFFC0
ENDCHAR
STARTCHAR 0153
ENCODING 339
SWIDTH 1350 0
DWIDTH 27 0
BBX 25 11 1 0
BITMAP
3FF7FF00
7FFFFF80
FFFFFF80
E01C0380
E01C0380
E01FFF80
E01FFF80
E01C0000
FFFFE000
7FFFE000
3FF7E000
ENDCHAR
STARTCHAR 0154
ENCODING 340
SWIDTH 900 0
DWIDTH 18 0
BBX 16 20 1 0
BITMAP
00E0
00E0
01C0
01C0
0380
0000
FFFC
FFFE
FFFF
E007
E007
E007
E007
FFFF
FFFE
FFFC
E780
E3E0
E0F8
E03E
ENDCHAR
STARTCHAR 0155
ENCODING 341
SWIDTH 450 0
DWIDTH 9 0
BBX 7 17 1 0
BITMAP
0E
0E
1C
1C
38
00
3E
7E
FE
E0
E0
E0
E0
E0
E0
E0
E0
ENDCHAR
STARTCHAR 0156
ENCODING 342
SWIDTH 900 0
DWIDTH 18 0
BBX 16 18 1 -4
BITMAP
FFFC
FFFE
FFFF
E007
E007
E007
E007
FFFF
FFFE
FFFC
E780
E3E0
E0F8
E03E
0000
0180
0380
0300
ENDCHAR
STARTCHAR 0157
ENCODING 343
SWIDTH 450 0
DWIDTH 9 0
BBX 7 15 1 -4
BITMAP
3E
7E
FE
E0
E0
E0
E0
E0
E0
E0
E0
00
60
E0
C0
ENDCHAR
STARTCHAR 0158
ENCODING 344
SWIDTH 900 0
DWIDTH 18 0
BBX 16 20 1 0
BITMAP
3870
1C60
0EE0
07C0
0780
0380
FFFC
FFFE
FFFF
E007
E007
E007
E007
FFFF
FFFE
FFFC
E780
E3E0
E0F8
E03E
ENDCHAR
STARTCHAR 0159
ENCODING 345
SWIDTH 450 0
DWIDTH 9 0
BBX 10 17 0 0
BITMAP
E1C0
7180
3B80
1F00
1E00
0E00
1F00
3F00
7F00
7000
7000
7000
7000
7000
7000
7000
7000
ENDCHAR
STARTCHAR 015A
ENCODING 346
SWIDTH 850 0
DWIDTH 17 0
BBX 15 20 1 0
BITMAP
01C0
01C0
0380
0380
0700
0000
3F00
7F00
FF00
E000
E000
E000
FFFC
FFFE
7FFE
000E
000E
FFFE
FFFE
FFFC
ENDCHAR
STARTCHAR 015B
ENCODING 347
SWIDTH 750 0
DWIDTH 15 0
BBX 13 17 1 0
BITMAP
0380
0380
0700
0700
0E00
0000
7E00
FE00
FE00
FFF0
FFF8
7FF8
0038
0038
FFF8
FFF8
FFF0
ENDCHAR
STARTCHAR 015E
ENCODING 350
SWIDTH 850 0
DWIDTH 17 0
BBX 15 18 1 -4
BITMAP
3F00
7F00
FF00
E000
E000
E000
FFFC
FFFE
7FFE
000E
000E
FFFE
FFFE
FFFC
0000
0300
0700
0600
ENDCHAR
STARTCHAR 015F
ENCODING 351
SWIDTH 750 0
DWIDTH 15 0
BBX 13 15 1 -4
BITMAP
7E00
FE00
FE00
FFF0
FFF8
7FF8
0038
0038
FFF8
FFF8
FFF0
0000
0300
0700
0600
ENDCHAR
STARTCHAR 0160
ENCODING 352
SWIDTH 850 0
DWIDTH 17 0
BBX 15 20 1 0
BITMAP
3870
1C60
0EE0
07C0
0780
0380
3F00
7F00
FF00
E000
E000
E000
FFFC
FFFE
7FFE
000E
000E
FFFE
FFFE
FFFC
ENDCHAR
STARTCHAR 0161
ENCODING 353
SWIDTH 750 0
DWIDTH 15 0
BBX 13 17 1 0
BITMAP
70E0
38C0
1DC0
0F80
0F00
0700
7E00
FE00
FE00
FFF0
FFF8
7FF8
0038
0038
FFF8
FFF8
FFF0
ENDCHAR
STARTCHAR 0162
ENCODING 354
SWIDTH 750 0
DWIDTH 15 0
BBX 15 18 0 -4
BITMAP
FFFE
FFFE
FFFE
0380
0380
0380
0380
0380
0380
0380
0380
0380
0380
0380
0000
0180
0380
0300
ENDCHAR
STARTCHAR 0163
ENCODING 355
SWIDTH 450 0
DWIDTH 9 0
BBX 8 18 0 -4
BITMAP
38
38
38
FF
FF
FF
38
38
38
38
38
38
38
38
00
30
70
60
ENDCHAR
STARTCHAR 0164
ENCODING 356
SWIDTH 750 0
DWIDTH 15 0
BBX 15 20 0 0
BITMAP
3870
1C60
0EE0
07C0
0780
0380
FFFE
FFFE
FFFE
0380
0380
0380
0380
0380
0380
0380
0380
0380
0380
0380
ENDCHAR
STARTCHAR 0165
ENCODING 357
SWIDTH 600 0
DWIDTH 12 0
BBX 12 14 0 0
BITMAP
3870
3870
3860
FF60
FF60
FF00
3800
3800
3800
3800
3800
3800
3800
3800
ENDCHAR
STARTCHAR 0166
ENCODING 358
SWIDTH 750 0
DWIDTH 15 0
BBX 15 14 0 0
BITMAP
FFFE
FFFE
FFFE
0380
0380
0380
1FF0
1FF0
1FF0
0380
0380
0380
0380
0380
ENDCHAR
STARTCHAR 0167
ENCODING 359
SWIDTH 450 0
DWIDTH 9 0
BBX 8 14 0 0
BITMAP
38
38
38
FF
FF
FF
38
38
7F
7F
7F
38
38
38
ENDCHAR
STARTCHAR 0168
ENCODING 360
SWIDTH 900 0
DWIDTH 18 0
BBX 16 19 1 0
BITMAP
3FF8
3FF8
3FF8
0000
0000
E007
E007
E007
E007
E007
E007
E007
E007
E007
E007
F00F
FFFF
7FFE
3FFC
ENDCHAR
STARTCHAR 0169
ENCODING 361
SWIDTH 800 0
DWIDTH 16 0
BBX 14 16 1 0
BITMAP
3FF8
3FF8
3FF8
0000
0000
E01C
E01C
E01C
E01C
E01C
E01C
E01C
E01C
FFFC
7FF8
3FF0
ENDCHAR
STARTCHAR 016A
ENCODING 362
SWIDTH 900 0
DWIDTH 18 0
BBX 16 19 1 0
BITMAP
3FF8
3FF8
3FF8
0000
0000
E007
E007
E007
E007
E007
E007
E007
E007
E007
E007
F00F
FFFF
7FFE
3FFC
ENDCHAR
STARTCHAR 016B
ENCODING 363
SWIDTH 800 0
DWIDTH 16 0
BBX 14 16 1 0
BITMAP
3FF8
3FF8
3FF8
0000
0000
E01C
E01C
E01C
E01C
E01C
E01C
E01C
E01C
FFFC
7FF8
3FF0
ENDCHAR
STARTCHAR 016C
ENCODING 364
SWIDTH 900 0
DWIDTH 18 0
BBX 16 20 1 0
BITMAP
1830
1830
1830
1FF0
0FE0
0000
E007
E007
E007
E007
E007
E007
E007
E007
E007
E007
F00F
FFFF
7FFE
3FFC
ENDCHAR
STARTCHAR 016D
ENCODING 365
SWIDTH 800 0
DWIDTH 16 0
BBX 14 17 1 0
BITMAP
1830
1830
1830
1FF0
0FE0
0000
E01C
E01C
E01C
E01C
E01C
E01C
E01C
E01C
FFFC
7FF8
3FF0
ENDCHAR
STARTCHAR 016E
ENCODING 366
SWIDTH 900 0
DWIDTH 18 0
BBX 16 20 1 0
BITMAP
07E0
0C30
0C30
0C30
0C30
07E0
E007
E007
E007
E007
E007
E007
E007
E007
E007
E007
F00F
FFFF
7FFE
3FFC
ENDCHAR
STARTCHAR 016F
ENCODING 367
SWIDTH 800 0
DWIDTH 16 0
BBX 14 17 1 0
BITMAP
0FC0
1860
1860
1860
1860
0FC0
E01C
E01C
E01C
E01C
E01C
E01C
E01C
E01C
FFFC
7FF8
3FF0
ENDCHAR
STARTCHAR 0170
ENCODING 368
SWIDTH 900 0
DWIDTH 18 0
BBX 16 20 1 0
BITMAP
071C
0738
0E38
0E70
1C60
0000
E007
E007
E007
E007
E007
E007
E007
E007
E007
E007
F00F
FFFF
7FFE
3FFC
ENDCHAR
STARTCHAR 0171
ENCODING 369
SWIDTH 800 0
DWIDTH 16 0
BBX 14 17 1 0
BITMAP
0E38
0E70
1C70
1CE0
38C0
0000
E01C
E01C
E01C
E01C
E01C
E01C
E01C
E01C
FFFC
7FF8
3FF0
ENDCHAR
STARTCHAR 0172
ENCODING 370
SWIDTH 900 0
DWIDTH 18 0
BBX 16 19 1 -5
BITMAP
E007
E007
E007
E007
E007
E007
E007
E007
E007
E007
F00F
FFFF
7FFE
3FFC
0380
0700
07E0
07E0
03E0
ENDCHAR
STARTCHAR 0173
ENCODING 371
SWIDTH 800 0
DWIDTH 16 0
BBX 14 16 1 -5
BITMAP
E01C
E01C
E01C
E01C
E01C
E01C
E01C
E01C
FFFC
7FF8
3FF0
0700
0E00
0FC0
0FC0
07C0
ENDCHAR
STARTCHAR 0174
ENCODING 372
SWIDTH 1350 0
DWIDTH 27 0
BBX 27 20 0 0
BITMAP
000E0000
001E0000
001F0000
003B8000
00718000
0061C000
F00E01E0
701E01C0
781F03C0
381F0380
383B8780
3C3B8700
1C71C700
1E71CE00
0EE1EE00
0EE0FE00
07C0FC00
07C07C00
07807800
03803800
ENDCHAR
STARTCHAR 0175
ENCODING 373
SWIDTH 1100 0
DWIDTH 22 0
BBX 22 17 0 0
BITMAP
003800
007800
007C00
00EE00
01C600
018700
E0301C
707838
707838
38FC70
38FC70
1DCEE0
1DCEE0
1F87E0
0F87C0
0F03C0
060380
ENDCHAR
STARTCHAR 0176
ENCODING 374
SWIDTH 950 0
DWIDTH 19 0
BBX 17 20 1 0
BITMAP
01C000
03C000
03E000
077000
0E3000
0C3800
F00380
780F00
3C1E00
1E3C00
0F7800
07F000
03E000
01C000
01C000
01C000
01C000
01C000
01C000
01C000
ENDCHAR
STARTCHAR 0177
ENCODING 375
SWIDTH 800 0
DWIDTH 16 0
BBX 14 21 1 -4
BITMAP
0380
0780
07C0
0EE0
1C60
1870
E01C
E01C
E01C
E01C
E01C
E01C
E01C
FFFC
7FFC
3FFC
001C
001C
03FC
03FC
03F8
ENDCHAR
STARTCHAR 0178
ENCODING 376
SWIDTH 950 0
DWIDTH 19 0
BBX 17 17 1 0
BITMAP
0E7000
0E7000
0E7000
F00380
780F00
3C1E00
1E3C00
0F7800
07F000
03E000
01C000
01C000
01C000
01C000
01C000
01C000
01C000
ENDCHAR
STARTCHAR 0179
ENCODING 377
SWIDTH 850 0
DWIDTH 17 0
BBX 15 20 1 0
BITMAP
01C0
01C0
0380
0380
0700
0000
FFFC
FFFE
FFFC
0038
00F0
01E0
03C0
0780
0E00
1C00
7800
FFFE
FFFE
FFFE
ENDCHAR
STARTCHAR 017A
ENCODING 378
SWIDTH 700 0
DWIDTH 14 0
BBX 12 17 1 0
BITMAP
0380
0380
0700
0700
0E00
0000
FFF0
FFF0
FFE0
01C0
0300
0600
1C00
3800
7FF0
FFF0
FFF0
ENDCHAR
STARTCHAR 017B
ENCODING 379
SWIDTH 850 0
DWIDTH 17 0
BBX 15 17 1 0
BITMAP
0380
0380
0380
FFFC
FFFE
FFFC
0038
00F0
01E0
03C0
0780
0E00
1C00
7800
FFFE
FFFE
FFFE
ENDCHAR
STARTCHAR 017C
ENCODING 380
SWIDTH 700 0
DWIDTH 14 0
BBX 12 14 1 0
BITMAP
0E00
0E00
0E00
FFF0
FFF0
FFE0
01C0
0300
0600
1C00
3800
7FF0
FFF0
FFF0
ENDCHAR
STARTCHAR 017D
ENCODING 381
SWIDTH 850 0
DWIDTH 17 0
BBX 15 20 1 0
BITMAP
3870
1C60
0EE0
07C0
0780
0380
FFFC
FFFE
FFFC
0038
00F0
01E0
03C0
0780
0E00
1C00
7800
FFFE
FFFE
FFFE
ENDCHAR
STARTCHAR 017E
ENCODING 382
SWIDTH 700 0
DWIDTH 14 0
BBX 12 17 1 0
BITMAP
70E0
38C0
1DC0
0F80
0F00
0700
FFF0
FFF0
FFE0
01C0
0300
0600
1C00
3800
7FF0
FFF0
FFF0
ENDCHAR
STARTCHAR 0192
ENCODING 402
SWIDTH 550 0
DWIDTH 11 0
BBX 10 16 0 -2
BITMAP
01C0
03C0
07C0
0700
0600
0600
3FC0
3FC0
3FC0
0E00
0C00
0C00
1C00
FC00
F800
F000
ENDCHAR
STARTCHAR 0218
ENCODING 536
SWIDTH 850 0
DWIDTH 17 0
BBX 15 18 1 -4
BITMAP
3F00
7F00
FF00
E000
E000
E000
FFFC
FFFE
7FFE
000E
000E
FFFE
FFFE
FFFC
0000
0300
0700
0600
ENDCHAR
STARTCHAR 0219
ENCODING 537
SWIDTH 750 0
DWIDTH 15 0
BBX 13 15 1 -4
BITMAP
7E00
FE00
FE00
FFF0
FFF8
7FF8
0038
0038
FFF8
FFF8
FFF0
0000
0300
0700
0600
ENDCHAR
STARTCHAR 021A
ENCODING 538
SWIDTH 750 0
DWIDTH 15 0
BBX 15 18 0 -4
BITMAP
FFFE
FFFE
FFFE
0380
0380
0380
0380
0380
0380
0380
0380
0380
0380
0380
0000
0180
0380
0300
ENDCHAR
STARTCHAR 021B
ENCODING 539
SWIDTH 450 0
DWIDTH 9 0
BBX 8 18 0 -4
BITMAP
38
38
38
FF
FF
FF
38
38
38
38
38
38
38
38
00
30
70
60
ENDCHAR
STARTCHAR 02C6
ENCODING 710
SWIDTH 650 0
DWIDTH 13 0
BBX 9 6 2 11
BITMAP
1C00
3C00
3E00
7700
E300
C380
ENDCHAR
STARTCHAR 02C7
ENCODING 711
SWIDTH 650 0
DWIDTH 13 0
BBX 10 6 1 11
BITMAP
E1C0
7180
3B80
1F00
1E00
0E00
ENDCHAR
STARTCHAR 02D8
ENCODING 728
SWIDTH 550 0
DWIDTH 11 0
BBX 9 5 1 12
BITMAP
C180
C180
C180
FF80
7F00
ENDCHAR
STARTCHAR 02D9
ENCODING 729
SWIDTH 250 0
DWIDTH 5 0
BBX 3 3 1 11
BITMAP
E0
E0
E0
ENDCHAR
STARTCHAR 02DA
ENCODING 730
SWIDTH 500 0
DWIDTH 10 0
BBX 8 6 1 11
BITMAP
7E
C3
C3
C3
C3
7E
ENDCHAR
STARTCHAR 02DB
ENCODING 731
SWIDTH 400 0
DWIDTH 8 0
BBX 6 5 1 -5
BITMAP
70
E0
FC
FC
7C
ENDCHAR
STARTCHAR 02DC
ENCODING 732
SWIDTH 650 0
DWIDTH 13 0
BBX 11 3 1 13
BITMAP
FFE0
FFE0
FFE0
ENDCHAR
STARTCHAR 02DD
ENCODING 733
SWIDTH 700 0
DWIDTH 14 0
BBX 11 5 1 12
BITMAP
38E0
39C0
71C0
7380
E300
ENDCHAR
STARTCHAR 0394
ENCODING 916
SWIDTH 1050 0
DWIDTH 21 0
BBX 20 14 0 0
BITMAP
007000
00F800
01F800
01DC00
039E00
078E00
070700
0E0780
0E0380
1C03C0
3C01C0
3FFFE0
7FFFF0
FFFFF0
ENDCHAR
STARTCHAR 039B
ENCODING 923
SWIDTH 1050 0
DWIDTH 21 0
BBX 20 14 0 0
BITMAP
007000
00F800
01F800
01FC00
03DC00
079E00
070F00
0F0700
0E0780
1E03C0
3C01C0
3801E0
7800E0
F000F0
ENDCHAR
STARTCHAR 03A9
ENCODING 937
SWIDTH 900 0
DWIDTH 18 0
BBX 16 14 1 0
BITMAP
3FFC
7FFE
FFFF
E007
E007
E007
E007
E007
6006
300C
381C
F81F
F81F
F81F
ENDCHAR
STARTCHAR 03BC
ENCODING 956
SWIDTH 800 0
DWIDTH 16 0
BBX 14 14 1 -3
BITMAP
E01C
E01C
E01C
E01C
E01C
E01C
E01C
E01C
FFFC
FFF8
FFF0
E000
E000
E000
ENDCHAR
STARTCHAR 03C0
ENCODING 960
SWIDTH 800 0
DWIDTH 16 0
BBX 14 11 1 0
BITMAP
FFFC
FFFC
FFFC
E01C
E01C
E01C
E01C
E01C
E01C
E01C
E01C
ENDCHAR
STARTCHAR 1E80
ENCODING 7808
SWIDTH 1350 0
DWIDTH 27 0
BBX 27 20 0 0
BITMAP
00380000
00380000
001C0000
001C0000
000E0000
00000000
F00E01E0
701E01C0
781F03C0
381F0380
383B8780
3C3B8700
1C71C700
1E71CE00
0EE1EE00
0EE0FE00
07C0FC00
07C07C00
07807800
03803800
ENDCHAR
STARTCHAR 1E81
ENCODING 7809
SWIDTH 1100 0
DWIDTH 22 0
BBX 22 17 0 0
BITMAP
00E000
00E000
007000
007000
003800
000000
E0301C
707838
707838
38FC70
38FC70
1DCEE0
1DCEE0
1F87E0
0F87C0
0F03C0
060380
ENDCHAR
STARTCHAR 1E82
ENCODING 7810
SWIDTH 1350 0
DWIDTH 27 0
BBX 27 20 0 0
BITMAP
00070000
00070000
000E0000
000E0000
001C0000
00000000
F00E01E0
701E01C0
781F03C0
381F0380
383B8780
3C3B8700
1C71C700
1E71CE00
0EE1EE00
0EE0FE00
07C0FC00
07C07C00
07807800
03803800
ENDCHAR
STARTCHAR 1E83
ENCODING 7811
SWIDTH 1100 0
DWIDTH 22 0
BBX 22 17 0 0
BITMAP
001C00
001C00
003800
003800
007000
000000
E0301C
707838
707838
38FC70
38FC70
1DCEE0
1DCEE0
1F87E0
0F87C0
0F03C0
060380
ENDCHAR
STARTCHAR 1E84
ENCODING 7812
SWIDTH 1350 0
DWIDTH 27 0
BBX 27 17 0 0
BITMAP
00738000
00738000
00738000
F00E01E0
701E01C0
781F03C0
381F0380
383B8780
3C3B8700
1C71C700
1E71CE00
0EE1EE00
0EE0FE00
07C0FC00
07C07C00
07807800
03803800
ENDCHAR
STARTCHAR 1E85
ENCODING 7813
SWIDTH 1100 0
DWIDTH 22 0
BBX 22 14 0 0
BITMAP
01CE00
01CE00
01CE00
E0301C
707838
707838
38FC70
38FC70
1DCEE0
1DCEE0
1F87E0
0F87C0
0F03C0
060380
ENDCHAR
STARTCHAR 1EF2
ENCODING 7922
SWIDTH 950 0
DWIDTH 19 0
BBX 17 20 1 0
BITMAP
038000
038000
01C000
01C000
00E000
000000
F00380
780F00
3C1E00
1E3C00
0F7800
07F000
03E000
01C000
01C000
01C000
01C000
01C000
01C000
01C000
ENDCHAR
STARTCHAR 1EF3
ENCODING 7923
SWIDTH 800 0
DWIDTH 16 0
BBX 14 21 1 -4
BITMAP
0E00
0E00
0700
0700
0380
0000
E01C
E01C
E01C
E01C
E01C
E01C
E01C
FFFC
7FFC
3FFC
001C
001C
03FC
03FC
03F8
ENDCHAR
STARTCHAR 2013
ENCODING 8211
SWIDTH 700 0
DWIDTH 14 0
BBX 12 3 1 5
BITMAP
FFF0
FFF0
FFF0
ENDCHAR
STARTCHAR 2014
ENCODING 8212
SWIDTH 950 0
DWIDTH 19 0
BBX 18 3 1 5
BITMAP
FFFFC0
FFFFC0
FFFFC0
ENDCHAR
STARTCHAR 2018
ENCODING 8216
SWIDTH 250 0
DWIDTH 5 0
BBX 3 5 1 9
BITMAP
E0
E0
E0
60
60
ENDCHAR
STARTCHAR 2019
ENCODING 8217
SWIDTH 250 0
DWIDTH 5 0
BBX 3 5 1 9
BITMAP
E0
E0
C0
C0
C0
ENDCHAR
STARTCHAR 201A
ENCODING 8218
SWIDTH 250 0
DWIDTH 5 0
BBX 3 4 1 -1
BITMAP
E0
E0
C0
C0
ENDCHAR
STARTCHAR 201C
ENCODING 8220
SWIDTH 450 0
DWIDTH 9 0
BBX 8 5 1 9
BITMAP
E7
E7
E7
63
63
ENDCHAR
STARTCHAR 201D
ENCODING 8221
SWIDTH 450 0
DWIDTH 9 0
BBX 8 5 1 9
BITMAP
E7
E7
C6
C6
C6
ENDCHAR
STARTCHAR 201E
ENCODING 8222
SWIDTH 450 0
DWIDTH 9 0
BBX 8 4 1 -1
BITMAP
E7
E7
C6
C6
ENDCHAR
STARTCHAR 2020
ENCODING 8224
SWIDTH 450 0
DWIDTH 9 0
BBX 8 14 0 0
BITMAP
18
18
18
18
FF
FF
18
18
18
18
18
18
18
18
ENDCHAR
STARTCHAR 2021
ENCODING 8225
SWIDTH 450 0
DWIDTH 9 0
BBX 8 14 0 0
BITMAP
18
18
18
18
FF
FF
18
18
18
FF
FF
18
18
18
ENDCHAR
STARTCHAR 2022
ENCODING 8226
SWIDTH 400 0
DWIDTH 8 0
BBX 6 6 1 4
BITMAP
78
F8
FC
FC
F8
78
ENDCHAR
STARTCHAR 2026
ENCODING 8230
SWIDTH 1350 0
DWIDTH 27 0
BBX 25 3 1 0
BITMAP
E01C0380
E01C0380
E01C0380
ENDCHAR
STARTCHAR 2030
ENCODING 8240
SWIDTH 1450 0
DWIDTH 29 0
BBX 27 14 1 0
BITMAP
7E0E0000
FF0C0000
C3180000
C3380000
C3300000
FF600000
7EE00000
00DF8FC0
01BFDFE0
03B0D860
0330D860
0630D860
0E3FDFE0
0C1F8FC0
ENDCHAR
STARTCHAR 2039
ENCODING 8249
SWIDTH 300 0
DWIDTH 6 0
BBX 5 9 0 2
BITMAP
08
18
38
70
E0
70
38
18
08
ENDCHAR
STARTCHAR 203A
ENCODING 8250
SWIDTH 300 0
DWIDTH 6 0
BBX 5 9 0 2
BITMAP
80
C0
F0
38
18
38
F0
C0
80
ENDCHAR
STARTCHAR 2044
ENCODING 8260
SWIDTH 300 0
DWIDTH 6 0
BBX 11 14 -2 0
BITMAP
00E0
00C0
0180
0380
0300
0600
0E00
0C00
1800
3800
3000
6000
E000
C000
ENDCHAR
STARTCHAR 2070
ENCODING 8304
SWIDTH 500 0
DWIDTH 10 0
BBX 8 7 1 7
BITMAP
7E
FF
C3
C3
C3
FF
7E
ENDCHAR
STARTCHAR 2074
ENCODING 8308
SWIDTH 500 0
DWIDTH 10 0
BBX 8 7 1 7
BITMAP
C3
C3
C3
C3
FF
FF
03
ENDCHAR
STARTCHAR 2075
ENCODING 8309
SWIDTH 500 0
DWIDTH 10 0
BBX 8 7 1 7
BITMAP
F8
F8
C0
FF
01
FF
FF
ENDCHAR
STARTCHAR 2076
ENCODING 8310
SWIDTH 500 0
DWIDTH 10 0
BBX 9 7 1 7
BITMAP
7800
F800
C000
FF00
C180
FF80
7F00
ENDCHAR
STARTCHAR 2077
ENCODING 8311
SWIDTH 500 0
DWIDTH 10 0
BBX 8 7 1 7
BITMAP
FF
FF
06
0C
1C
38
30
ENDCHAR
STARTCHAR 2078
ENCODING 8312
SWIDTH 500 0
DWIDTH 10 0
BBX 8 7 1 7
BITMAP
FF
FF
C3
7E
C3
FF
FF
ENDCHAR
STARTCHAR 2079
ENCODING 8313
SWIDTH 500 0
DWIDTH 10 0
BBX 9 7 0 7
BITMAP
7F00
FF80
C180
7F80
0180
0F80
0F00
ENDCHAR
STARTCHAR 2080
ENCODING 8320
SWIDTH 500 0
DWIDTH 10 0
BBX 8 7 1 0
BITMAP
7E
FF
C3
C3
C3
FF
7E
ENDCHAR
STARTCHAR 2081
ENCODING 8321
SWIDTH 200 0
DWIDTH 4 0
BBX 2 7 1 0
BITMAP
C0
C0
C0
C0
C0
C0
C0
ENDCHAR
STARTCHAR 2082
ENCODING 8322
SWIDTH 500 0
DWIDTH 10 0
BBX 8 7 1 0
BITMAP
1F
1F
03
FF
80
FF
FF
ENDCHAR
STARTCHAR 2083
ENCODING 8323
SWIDTH 500 0
DWIDTH 10 0
BBX 9 7 0 0
BITMAP
0F80
0F80
0180
7F00
0180
FF80
FF80
ENDCHAR
STARTCHAR 2084
ENCODING 8324
SWIDTH 500 0
DWIDTH 10 0
BBX 8 7 1 0
BITMAP
C3
C3
C3
C3
FF
FF
03
ENDCHAR
STARTCHAR 2085
ENCODING 8325
SWIDTH 500 0
DWIDTH 10 0
BBX 8 7 1 0
BITMAP
F8
F8
C0
FF
01
FF
FF
ENDCHAR
STARTCHAR 2086
ENCODING 8326
SWIDTH 500 0
DWIDTH 10 0
BBX 9 7 1 0
BITMAP
7800
F800
C000
FF00
C180
FF80
7F00
ENDCHAR
STARTCHAR 2087
ENCODING 8327
SWIDTH 500 0
DWIDTH 10 0
BBX 8 7 1 0
BITMAP
FF
FF
06
0C
1C
38
30
ENDCHAR
STARTCHAR 2088
ENCODING 8328
SWIDTH 500 0
DWIDTH 10 0
BBX 8 7 1 0
BITMAP
FF
FF
C3
7E
C3
FF
FF
ENDCHAR
STARTCHAR 2089
ENCODING 8329
SWIDTH 500 0
DWIDTH 10 0
BBX 9 7 0 0
BITMAP
7F00
FF80
C180
7F80
0180
0F80
0F00
ENDCHAR
STARTCHAR 20AC
ENCODING 8364
SWIDTH 850 0
DWIDTH 17 0
BBX 16 14 0 0
BITMAP
0FFF
1FFE
3FFE
3800
3800
FFFC
FFFC
3800
FFF8
FFF8
3800
3FFF
1FFF
0FFF
ENDCHAR
STARTCHAR 2117
ENCODING 8471
SWIDTH 900 0
DWIDTH 18 0
BBX 16 13 1 0
BITMAP
3FFC
6006
C003
CFF3
CC33
CC33
CFF3
CC03
CC03
C003
C003
6006
3FFC
ENDCHAR
STARTCHAR 2122
ENCODING 8482
SWIDTH 1250 0
DWIDTH 25 0
BBX 23 9 1 5
BITMAP
FF6006
FF700E
18781E
187C1E
186C36
186666
1867E6
1863C6
186186
ENDCHAR
STARTCHAR 2153
ENCODING 8531
SWIDTH 850 0
DWIDTH 17 0
BBX 14 14 2 0
BITMAP
C0E0
C0C0
C180
C380
C300
C600
CE00
0C7C
187C
380C
33F8
600C
E7FC
C7FC
ENDCHAR
STARTCHAR 2154
ENCODING 8532
SWIDTH 1050 0
DWIDTH 21 0
BBX 19 14 1 0
BITMAP
1F0700
1F0600
030C00
FF1C00
801800
FF3000
FF7000
0063E0
00C3E0
01C060
019FC0
030060
073FE0
063FE0
ENDCHAR
STARTCHAR 215B
ENCODING 8539
SWIDTH 900 0
DWIDTH 18 0
BBX 15 14 2 0
BITMAP
C0E0
C0C0
C180
C380
C300
C600
CE00
0DFE
19FE
3986
30FC
6186
E1FE
C1FE
ENDCHAR
STARTCHAR 215C
ENCODING 8540
SWIDTH 1050 0
DWIDTH 21 0
BBX 21 14 0 0
BITMAP
0F8380
0F8300
018600
7F0E00
018C00
FF9800
FFB800
0037F8
0067F8
00E618
00C3F0
018618
0387F8
0307F8
ENDCHAR
STARTCHAR 215D
ENCODING 8541
SWIDTH 1100 0
DWIDTH 22 0
BBX 20 14 1 0
BITMAP
F80700
F80600
C00C00
FF1C00
011800
FF3000
FF7000
006FF0
00CFF0
01CC30
0187E0
030C30
070FF0
060FF0
ENDCHAR
STARTCHAR 215E
ENCODING 8542
SWIDTH 950 0
DWIDTH 19 0
BBX 17 14 1 0
BITMAP
FF3800
FF3000
066000
0CE000
1CC000
398000
338000
037F80
067F80
0E6180
0C3F00
186180
387F80
307F80
ENDCHAR
STARTCHAR 2202
ENCODING 8706
SWIDTH 700 0
DWIDTH 14 0
BBX 12 14 1 0
BITMAP
0F80
0FC0
00E0
0070
0030
3F30
7FB0
F0F0
E030
E020
E020
F0E0
7FC0
3F00
ENDCHAR
STARTCHAR 220F
ENCODING 8719
SWIDTH 650 0
DWIDTH 13 0
BBX 11 19 1 -4
BITMAP
FFE0
FFE0
FFE0
E0E0
E0E0
E0E0
E0E0
E0E0
E0E0
E0E0
E0E0
E0E0
E0E0
E0E0
E0E0
E0E0
E0E0
E0E0
E0E0
ENDCHAR
STARTCHAR 2211
ENCODING 8721
SWIDTH 650 0
DWIDTH 13 0
BBX 11 20 1 -5
BITMAP
FFE0
FFE0
FFE0
7000
3000
3800
1C00
0C00
0E00
0700
0700
0E00
0C00
1C00
3800
3000
7000
FFE0
FFE0
FFE0
ENDCHAR
STARTCHAR 2212
ENCODING 8722
SWIDTH 600 0
DWIDTH 12 0
BBX 10 3 1 5
BITMAP
FFC0
FFC0
FFC0
ENDCHAR
STARTCHAR 221A
ENCODING 8730
SWIDTH 600 0
DWIDTH 12 0
BBX 10 14 1 0
BITMAP
00C0
00C0
01C0
0180
0180
0380
E300
E300
6300
3600
3600
3600
1E00
1C00
ENDCHAR
STARTCHAR 221E
ENCODING 8734
SWIDTH 800 0
DWIDTH 16 0
BBX 14 9 1 2
BITMAP
3CF0
7FF8
E31C
C30C
C20C
C30C
E31C
7FF8
3CF0
ENDCHAR
STARTCHAR 222B
ENCODING 8747
SWIDTH 400 0
DWIDTH 8 0
BBX 8 22 0 -5
BITMAP
07
0F
18
18
18
18
18
18
18
18
18
18
18
18
18
18
18
18
18
18
F0
E0
ENDCHAR
STARTCHAR 2248
ENCODING 8776
SWIDTH 600 0
DWIDTH 12 0
BBX 10 8 1 3
BITMAP
7040
FFC0
FF80
0600
7040
FFC0
FF80
0600
ENDCHAR
STARTCHAR 2260
ENCODING 8800
SWIDTH 600 0
DWIDTH 12 0
BBX 11 14 0 0
BITMAP
0060
00C0
7FE0
7FE0
7FE0
0300
0600
0E00
7FE0
7FE0
3800
3000
6000
E000
ENDCHAR
STARTCHAR 2264
ENCODING 8804
SWIDTH 600 0
DWIDTH 12 0
BBX 10 16 1 -3
BITMAP
0040
01C0
0780
1E00
7800
F000
F000
7800
1E00
0780
01C0
0040
0000
FFC0
FFC0
FFC0
ENDCHAR
STARTCHAR 2265
ENCODING 8805
SWIDTH 600 0
DWIDTH 12 0
BBX 10 16 1 -3
BITMAP
8000
E000
7800
3E00
0F00
03C0
03C0
0F00
3E00
7800
E000
8000
0000
FFC0
FFC0
FFC0
ENDCHAR
STARTCHAR 25CA
ENCODING 9674
SWIDTH 550 0
DWIDTH 11 0
BBX 9 14 1 0
BITMAP
0C00
1C00
3E00
3600
7300
6300
E180
E180
6300
7300
3600
3E00
1C00
0C00
ENDCHAR
STARTCHAR FB01
ENCODING 64257
SWIDTH 700 0
DWIDTH 14 0
BBX 12 15 1 0
BITMAP
7E00
FE70
FE70
E070
FE70
FE70
FE70
E070
E070
E070
E070
E070
E070
E070
E070
ENDCHAR
STARTCHAR FB02
ENCODING 64258
SWIDTH 700 0
DWIDTH 14 0
BBX 12 15 1 0
BITMAP
7E00
FE70
FE70
E070
FE70
FE70
FE70
E070
E070
E070
E070
E070
E070
E070
E070
ENDCHAR
ENDFONT
